<svg width="331" height="212" viewBox="0 0 331 212" fill="none" xmlns="http://www.w3.org/2000/svg">
<path d="M48.4072 73.9995C50.3277 73.9995 51.9093 75.5247 51.9093 77.3323C51.9093 79.1399 50.3842 80.6086 48.5202 80.6651H44.2838C42.3069 80.6651 40.4429 81.5689 39.2002 83.0376C39.2567 80.7781 40.0475 78.575 41.4596 76.9369C43.0977 75.0163 45.5265 73.9995 48.4072 73.9995ZM12.0311 73.9995C14.6859 73.9995 17.1147 75.2987 18.5268 77.4453L18.5833 77.5018L15.7026 80.2132L15.1378 79.2529C14.4599 78.2361 13.3302 77.6712 12.0876 77.6712C10.0541 77.6712 8.41608 79.2529 8.41608 81.23C8.41608 83.2071 10.0541 84.7887 12.0876 84.7887H14.121L17.962 88.4605H12.0311C7.85123 88.4605 4.40567 85.2407 4.40567 81.23C4.40567 77.2193 7.85123 73.9995 12.0311 73.9995ZM61.5681 74.2255C65.9739 74.2819 70.7187 77.1629 70.7187 83.3765C70.7187 85.2407 69.1936 86.8223 67.3296 86.8223C65.5221 86.8223 63.997 85.2971 63.9405 83.4895V79.3094C63.9405 77.3323 63.0367 75.4682 61.5681 74.2255ZM24.5142 75.0163L27.3384 77.7277L26.3782 78.2361C25.3615 78.914 24.7401 79.9873 24.7401 81.1735C24.7401 83.1506 26.3782 84.7323 28.4116 84.7323C30.4451 84.7323 32.0831 83.1506 32.0831 81.1735V79.2529L35.9806 75.5247V81.1735C35.9806 85.1842 32.5915 88.404 28.3552 88.404C24.1753 88.404 20.7297 85.1842 20.7297 81.1735C20.7297 78.6315 22.0854 76.3155 24.3448 75.0163H24.5142ZM57.7272 75.6377C59.5347 75.6377 61.1163 77.2193 61.1163 79.0834C61.1163 84.3933 57.7272 87.1048 54.3381 87.9521V79.027C54.3946 77.1628 55.9197 75.6377 57.7272 75.6377ZM44.0579 83.4895C49.4239 83.4895 52.1352 86.8223 52.9825 90.2116H43.9449C42.0809 90.1551 40.5558 88.6864 40.5558 86.8788C40.6123 85.0712 42.1939 83.4895 44.0579 83.4895ZM56.8799 89.4773H65.9175C67.7814 89.5337 69.3065 91.0024 69.3065 92.81C69.3065 94.6177 67.725 96.1429 65.8045 96.1429C60.4949 96.1429 57.7272 92.8101 56.8799 89.4773ZM12.0311 91.2284C16.211 91.2284 19.6565 94.4482 19.6565 98.4589C19.6565 101.001 18.3009 103.317 16.0415 104.616L15.9285 104.673L13.1043 101.961L14.0645 101.453C15.0813 100.775 15.7026 99.7016 15.7026 98.5154C15.7026 96.5383 14.0645 94.9566 12.0311 94.9566C9.99765 94.9566 8.35959 96.5383 8.35959 98.5154V100.436L4.46215 104.164V98.5154C4.40567 94.4482 7.85123 91.2284 12.0311 91.2284ZM28.3552 91.2284C32.535 91.2284 35.9806 94.4482 35.9806 98.4589C35.9806 102.47 32.5915 105.689 28.3552 105.689C25.7004 105.689 23.2715 104.39 21.8594 102.244L21.8029 102.187L24.6837 99.4757L25.2485 100.436C25.9263 101.453 27.056 102.018 28.2987 102.018C30.3321 102.018 31.9702 100.436 31.9702 98.4589C31.9702 97.4986 31.5748 96.5948 30.897 95.9169C30.2192 95.239 29.2589 94.9001 28.2987 94.9001H26.2652L22.4243 91.2284H28.3552ZM55.5243 91.7368V100.662C55.4678 102.526 53.9427 104.051 52.1352 104.051C50.3277 104.051 48.7461 102.47 48.7461 100.605C48.8026 95.2955 52.1352 92.5841 55.5243 91.7368ZM42.5893 92.81C44.3968 92.81 45.9219 94.3352 45.9784 96.1429V100.323C45.9784 102.3 46.8821 104.164 48.3507 105.407C43.9449 105.35 39.2002 102.47 39.2002 96.2558C39.2002 94.3917 40.7253 92.81 42.5893 92.81ZM70.7187 96.6513C70.6622 98.9108 69.8714 101.114 68.4593 102.752C66.7647 104.673 64.3359 105.689 61.4552 105.689C59.5347 105.689 57.9531 104.164 57.9531 102.357C57.9531 100.549 59.4782 99.0802 61.3422 99.0237H65.5786C67.612 98.9673 69.476 98.0635 70.7187 96.6513ZM8.64202 109.418V119.868V121.224L9.60225 120.263L19.6 110.208V116.083L11.0709 124.669H4.40567V109.418H8.64202ZM48.4072 109.418C50.6101 109.418 52.7565 110.378 54.564 112.185L58.4615 116.083L58.7439 116.366L59.0828 116.196C59.5912 115.97 60.156 115.801 60.7209 115.801C61.6811 115.801 62.5849 116.196 63.2627 116.874C64.6748 118.286 64.6748 120.602 63.2627 122.014C62.5849 122.692 61.6811 123.088 60.7209 123.088C59.7606 123.088 58.8569 122.692 58.1791 122.014C57.0494 120.885 56.8234 119.19 57.5012 117.834L57.6707 117.495L57.3883 117.213L53.4908 113.315C51.9657 111.79 50.2147 110.999 48.3507 110.999C46.4303 110.999 44.6227 111.79 43.0977 113.372C40.8948 115.631 40.1605 118.456 41.2337 121.111L40.0475 122.297C38.127 118.343 39.8215 114.501 42.0244 112.298C43.7755 110.434 46.0913 109.418 48.4072 109.418ZM60.7209 121.563C61.2857 121.563 61.7941 121.337 62.1895 120.941C62.9803 120.094 62.9803 118.795 62.1895 117.947C61.7941 117.552 61.2857 117.326 60.7209 117.326C60.156 117.326 59.6477 117.552 59.2523 117.947C58.4615 118.795 58.4615 120.094 59.2523 120.941C59.6477 121.337 60.156 121.563 60.7209 121.563ZM61.5117 109.418C63.8275 109.418 66.1434 110.434 67.9509 112.242C71.0011 115.292 72.3002 120.546 68.0074 124.895L64.1099 128.793L63.8275 129.075L63.997 129.414C64.6748 130.827 64.4489 132.521 63.3192 133.594C62.6413 134.272 61.7376 134.668 60.7774 134.668C59.8171 134.668 58.9134 134.272 58.2355 133.594C56.8234 132.182 56.8234 129.866 58.2355 128.454C58.9134 127.776 59.8171 127.381 60.7774 127.381C61.3422 127.381 61.907 127.494 62.4154 127.776L62.7543 127.946L63.0367 127.663L66.9342 123.766C70.0408 120.659 69.9844 116.479 66.8777 113.315C65.3526 111.79 63.5451 110.943 61.6246 110.943C60.7774 110.943 59.9866 111.112 59.1958 111.395L58.0096 110.208C59.0828 109.7 60.269 109.418 61.5117 109.418ZM60.7209 133.143C61.2857 133.143 61.7941 132.917 62.1895 132.521C62.9803 131.674 62.9803 130.375 62.1895 129.527C61.7941 129.132 61.2857 128.906 60.7209 128.906C60.156 128.906 59.6477 129.132 59.2523 129.527C58.4615 130.375 58.4615 131.674 59.2523 132.521C59.6477 132.917 60.156 133.143 60.7209 133.143ZM35.9806 109.418V117.213C32.0267 117.495 28.807 120.659 28.5246 124.669H20.7862C21.0686 116.422 27.7338 109.7 35.9806 109.418ZM49.198 115.801C50.1582 115.801 51.062 116.196 51.7398 116.874C53.1519 118.286 53.1519 120.602 51.7398 122.014C51.062 122.692 50.1582 123.088 49.198 123.088C48.6332 123.088 48.0683 122.975 47.5599 122.692L47.221 122.523L46.9386 122.805L43.0412 126.703C39.9345 129.81 39.991 133.99 43.0977 137.153C44.6227 138.678 46.4303 139.526 48.3507 139.526C49.198 139.526 49.9888 139.356 50.7796 139.074L51.9657 140.26C50.8361 140.825 49.6499 141.107 48.4637 141.107C46.1478 141.107 43.832 140.091 42.0244 138.283C38.9743 135.233 37.6751 129.979 41.968 125.63L45.8654 121.732L46.1478 121.45L45.9784 121.111C45.3006 119.698 45.5265 118.004 46.6562 116.93C47.2775 116.196 48.2378 115.801 49.198 115.801ZM49.198 121.563C49.7628 121.563 50.2712 121.337 50.6666 120.941C51.4574 120.094 51.4574 118.795 50.6666 117.947C50.2712 117.552 49.7628 117.326 49.198 117.326C48.6332 117.326 48.1248 117.552 47.7294 117.947C46.9386 118.795 46.9386 120.094 47.7294 120.941C48.0683 121.337 48.6332 121.563 49.198 121.563ZM35.9806 125.799V141.051H31.7442V130.601V129.245L30.784 130.205L20.7862 140.26V134.385L29.3154 125.799H35.9806ZM19.6 125.799C19.3176 134.103 12.6524 140.768 4.40567 141.051V133.256C8.35959 132.973 11.5792 129.81 11.8616 125.799H19.6ZM49.198 127.437C50.1582 127.437 51.062 127.833 51.7398 128.511C52.8695 129.64 53.0954 131.335 52.4176 132.691L52.2482 133.03L52.5306 133.312L56.428 137.21C57.9531 138.735 59.7041 139.526 61.5681 139.526C63.4886 139.526 65.2961 138.735 66.8212 137.153C69.0241 134.894 69.7584 132.069 68.6852 129.414L69.8714 128.228C71.7919 132.182 70.0973 136.023 67.8944 138.227C66.0869 140.034 63.771 141.051 61.4552 141.051C59.2523 141.051 57.1058 140.091 55.2983 138.283L51.4009 134.385L51.1185 134.103L50.7796 134.272C50.2712 134.498 49.7064 134.668 49.1415 134.668C48.1813 134.668 47.2775 134.272 46.5997 133.594C45.1876 132.182 45.1876 129.866 46.5997 128.454C47.2775 127.776 48.2378 127.437 49.198 127.437ZM49.198 133.143C49.7628 133.143 50.2712 132.917 50.6666 132.521C51.4574 131.674 51.4574 130.375 50.6666 129.527C50.2712 129.132 49.7628 128.906 49.198 128.906C48.6332 128.906 48.1248 129.132 47.7294 129.527C46.9386 130.375 46.9386 131.674 47.7294 132.521C48.0683 132.917 48.6332 133.143 49.198 133.143ZM63.4321 144.836C65.2396 144.836 66.9907 145.513 68.2898 146.7C67.2166 149.185 65.0702 150.936 62.4719 151.558H56.1456C56.4845 147.829 59.6477 144.836 63.4321 144.836ZM46.4302 144.836C50.2712 144.836 53.3779 147.829 53.6603 151.558H47.334C44.7357 150.993 42.5893 149.185 41.5161 146.7C42.9282 145.513 44.6227 144.836 46.4302 144.836ZM33.7777 144.836C34.2296 148.225 32.1396 151.501 28.807 152.462L25.9828 153.309L28.92 153.591C29.2589 153.648 29.6543 153.648 30.0497 153.648C31.9702 153.648 33.8342 153.196 35.5852 152.292C35.6417 153.196 35.4157 154.043 34.9074 154.778C34.1731 155.794 32.8739 156.529 31.3488 156.642C27.1125 157.263 24.0058 160.822 24.0058 165.115V165.68H24.5707C27.7338 165.68 30.671 167.544 32.0267 170.481L33.7777 174.322L33.0999 170.142C32.648 167.544 31.2359 165.341 29.0895 163.872C29.9932 162.573 31.2924 161.782 32.648 161.782C34.3425 161.782 36.0371 163.025 36.0371 165.341V174.379C35.7547 174.435 35.4722 174.435 35.1898 174.435C32.0831 174.435 29.3154 172.345 28.4681 169.408L27.6209 166.584L27.3384 169.521C27.1125 171.78 27.5644 174.096 28.6376 176.187C28.5246 176.187 28.4116 176.187 28.2987 176.187C26.1523 176.187 24.5707 174.492 24.2883 171.95C23.6669 167.657 20.1649 164.55 15.8721 164.55H15.3072V165.115C15.3072 168.335 13.4432 171.272 10.5625 172.571L6.77802 174.322L10.9014 173.645C13.4432 173.193 15.7026 171.78 17.1147 169.577C19.0352 170.933 19.3741 172.797 19.0352 174.04C18.6963 175.226 17.6231 176.525 15.5896 176.525H6.60857C6.15669 173.136 8.24662 169.86 11.5792 168.9L14.4035 168.052L11.4662 167.77C11.1273 167.713 10.7319 167.713 10.3366 167.713C8.41608 167.713 6.55208 168.165 4.80106 169.069C4.74457 168.165 4.97051 167.318 5.47887 166.584C6.21317 165.567 7.51232 164.832 9.03741 164.719C13.2738 164.098 16.3804 160.539 16.3804 156.246V155.681H15.8156C12.6524 155.681 9.71522 153.817 8.35959 150.88L6.60857 147.039L7.28638 151.219C7.73826 153.817 9.15038 156.02 11.2968 157.489C10.393 158.788 9.09389 159.579 7.73826 159.579C6.04372 159.579 4.34918 158.336 4.34918 156.02V146.982C4.6316 146.926 4.91403 146.926 5.19645 146.926C8.3031 146.926 11.0709 149.016 11.9181 151.953L12.7654 154.778L13.0478 151.84C13.2738 149.581 12.8219 147.265 11.7487 145.175C11.8616 145.175 11.9746 145.175 12.0876 145.175C14.234 145.175 15.8156 146.869 16.098 149.411C16.7193 153.704 20.2214 156.811 24.5142 156.811H25.079V156.246C25.079 153.026 26.943 150.089 29.8238 148.79L33.6082 147.039L29.4849 147.717C26.943 148.168 24.6837 149.581 23.2715 151.784C21.3511 150.428 21.0122 148.564 21.3511 147.321C21.69 146.135 22.7632 144.836 24.7966 144.836H33.7777ZM70.7187 152.687C70.4362 156.472 67.2731 159.41 63.4886 159.41H56.3151C56.8799 156.077 59.3652 153.422 62.6978 152.687H70.7187ZM47.2775 152.687C50.6101 153.422 53.0954 156.077 53.6603 159.41H46.4867C42.6458 159.41 39.5391 156.416 39.2567 152.687H47.2775ZM63.4321 161.895C67.2731 161.895 70.3797 164.889 70.6622 168.617H62.5849C59.2523 167.883 56.7669 165.228 56.2021 161.895H63.4321ZM53.6603 161.895C53.0954 165.228 50.6101 167.883 47.2775 168.617H39.2002C39.4826 164.832 42.6458 161.895 46.4302 161.895H53.6603ZM62.5284 169.803C65.1267 170.368 67.2731 172.176 68.3463 174.661C66.9907 175.904 65.2961 176.525 63.4886 176.525C59.6477 176.525 56.541 173.532 56.2586 169.803H62.5284ZM53.7168 169.803C53.4344 173.588 50.2712 176.525 46.4867 176.525C44.6792 176.525 42.9282 175.848 41.6291 174.661C42.7023 172.176 44.8487 170.425 47.447 169.803H53.7168ZM34.1731 179.745L28.1857 183.248L27.9033 183.417V183.756V186.693H21.2946C21.577 182.852 24.7401 179.802 28.6376 179.802H34.1731V179.745ZM12.3135 179.745C16.098 180.028 19.0917 183.248 19.0917 187.202V192.794L15.6461 186.75L15.4767 186.467H15.1378H12.257V179.745H12.3135ZM45.357 180.197C48.3507 180.197 50.6101 182.005 51.4574 184.999L53.4344 192.173L50.3277 190.422L49.9888 190.196L49.7064 190.478L39.2567 200.589V193.924L44.2838 192.625C45.4135 192.342 46.3738 191.608 46.9386 190.704C47.5035 189.8 47.6164 188.727 47.334 187.767C47.0516 186.75 46.3738 185.902 45.4135 185.338C44.7922 184.999 44.1144 184.829 43.3801 184.829C42.7023 184.829 42.0244 184.999 41.4031 185.338L39.7651 186.241L41.6291 186.411C42.7587 186.524 43.6625 187.428 43.6625 188.501C43.6625 189.687 42.6458 190.591 41.4596 190.591C40.2734 190.591 39.2567 189.631 39.2567 188.501V186.128C39.2002 182.852 41.968 180.197 45.357 180.197ZM54.6205 180.31L60.6079 183.643L59.2523 188.444C58.9698 189.574 59.0828 190.704 59.6477 191.664C60.382 192.851 61.7376 193.641 63.1497 193.641C63.8275 193.641 64.5618 193.472 65.1832 193.133C66.4258 192.455 67.2166 191.156 67.2166 189.744V187.936L66.1999 189.405C65.8045 189.97 65.1267 190.309 64.3924 190.309C63.997 190.309 63.6016 190.196 63.2627 190.026C62.7543 189.744 62.3589 189.292 62.246 188.727C62.0765 188.218 62.1895 187.654 62.4719 187.145C62.8673 186.467 63.6016 186.072 64.3924 186.072C64.7878 186.072 65.1832 186.185 65.5221 186.354L67.6685 187.541C69.1371 188.331 70.1538 189.631 70.5492 191.212C70.9446 192.738 70.7187 194.319 69.9279 195.675C68.7982 197.596 66.9342 198.612 64.6748 198.612C63.997 198.612 63.2627 198.499 62.5849 198.33L55.1854 196.409L58.2355 194.715L58.6309 194.489L58.518 194.037L54.6205 180.31ZM4.40567 181.27L7.85123 187.315L8.02068 187.597H8.35959H11.2403V194.319C7.45584 194.037 4.46215 190.817 4.46215 186.863V181.27H4.40567ZM35.6417 187.767C35.3593 191.608 32.1961 194.658 28.2987 194.658H22.7632L28.7505 191.156L29.033 190.986V190.647V187.71H35.6417V187.767ZM50.4407 195.731V199.177V199.629L50.8361 199.742L65.0702 203.414L59.0828 206.747L55.4113 203.188C54.564 202.397 53.4908 201.945 52.3611 201.945C50.1018 201.945 48.2942 203.696 48.2942 205.899C48.2942 207.311 49.085 208.611 50.2712 209.289L51.8528 210.192L51.062 208.554C50.5536 207.537 50.949 206.408 51.9657 205.843C52.3047 205.673 52.7 205.56 53.0954 205.56C53.8862 205.56 54.6205 205.956 55.0159 206.634C55.2983 207.142 55.3548 207.65 55.2419 208.215C55.0724 208.78 54.7335 209.232 54.2251 209.515L52.0787 210.701C51.1185 211.209 50.0453 211.492 48.9721 211.492C46.7692 211.492 44.7357 210.362 43.606 208.498C42.1374 206.012 42.5893 203.244 44.9052 201.041L50.4407 195.731ZM17.6231 196.466L11.6357 199.968L11.3533 200.137V200.476V203.414H4.74457C5.027 199.573 8.19013 196.522 12.0876 196.522H17.6231V196.466ZM29.1459 196.805C32.9304 197.087 35.9241 200.307 35.9241 204.261V209.853L32.4785 203.809L32.3091 203.527H31.9702H29.0895V196.805H29.1459ZM21.2381 198.33L24.6837 204.374L24.8531 204.657H25.192H28.0727V211.379C24.2883 211.096 21.2946 207.876 21.2946 203.922V198.33H21.2381ZM19.0917 204.487C18.8093 208.328 15.6461 211.379 11.7487 211.379H6.21317L12.2006 207.876L12.483 207.707V207.368V204.487H19.0917ZM48.4072 73.4346C41.1772 73.4346 37.9576 79.4224 38.6919 84.7887C39.6521 82.6987 41.7985 81.2865 44.2838 81.2865H48.5202C50.6666 81.23 52.4741 79.4789 52.4741 77.3888C52.4741 75.1858 50.6101 73.4346 48.4072 73.4346ZM12.0311 73.4346C7.51232 73.4346 3.84082 76.9369 3.84082 81.23C3.84082 85.5231 7.51232 89.0254 12.0311 89.0254H19.3741L14.347 84.2239H12.0876C10.3366 84.2239 8.98092 82.8681 8.98092 81.23C8.98092 79.5918 10.393 78.2361 12.0876 78.2361C13.1608 78.2361 14.121 78.7445 14.6859 79.5918L15.6461 81.1735L19.3176 77.6147L19.0352 77.1629C17.5666 74.9598 14.9683 73.4346 12.0311 73.4346ZM61.3987 73.6606C60.8903 73.6606 60.3255 73.7171 59.8171 73.7736C61.907 74.7339 63.3756 76.8804 63.3756 79.3094V83.4895C63.4321 85.6361 65.1832 87.3872 67.3296 87.3872C69.5325 87.3872 71.2835 85.5231 71.2835 83.3765C71.2835 76.9369 66.3693 73.6606 61.3987 73.6606ZM36.5454 74.2255L31.5183 79.027V81.1735C31.5183 82.8117 30.1062 84.1674 28.4116 84.1674C26.7171 84.1674 25.305 82.8117 25.305 81.1735C25.305 80.1567 25.8698 79.1964 26.7171 78.688L28.3552 77.7842L24.6837 74.2255L24.2318 74.5079C21.8594 75.8636 20.3343 78.3491 20.3343 81.1735C20.3343 85.4666 24.0058 88.9689 28.5246 88.9689C33.0434 88.9689 36.7149 85.4666 36.7149 81.1735V74.2255H36.5454ZM57.7272 75.0728C55.5808 75.0728 53.8297 76.8804 53.7733 78.9705V88.6299C57.9531 87.8956 61.6811 84.6758 61.6811 79.0834C61.6811 76.9369 59.9301 75.0728 57.7272 75.0728ZM44.0579 82.9246C41.855 82.9246 39.991 84.6758 39.991 86.8223C39.991 88.9689 41.7985 90.6635 43.9449 90.72H53.6603C52.926 86.5964 49.7628 82.9246 44.0579 82.9246ZM56.2021 88.9124C56.9364 93.0925 60.156 96.7642 65.8045 96.7642C68.0074 96.7642 69.8714 95.0131 69.8714 92.8665C69.8714 90.72 68.0639 89.0254 65.9175 88.9689L56.2021 88.9124ZM12.0311 90.6635C7.51232 90.6635 3.84082 94.1658 3.84082 98.4589V105.463L8.86795 100.662V98.5154C8.86795 96.8772 10.2801 95.5215 11.9746 95.5215C13.7256 95.5215 15.0813 96.8772 15.0813 98.5154C15.0813 99.5321 14.5164 100.492 13.6691 101.001L12.0311 101.905L15.7026 105.463L16.1545 105.181C18.5268 103.825 20.0519 101.34 20.0519 98.5154C20.1649 94.1093 16.5499 90.6635 12.0311 90.6635ZM28.3552 90.6635H21.0122L26.0393 95.465H28.2987C29.9932 95.465 31.4053 96.8207 31.4053 98.4589C31.4053 100.097 29.9932 101.453 28.2987 101.453C27.2255 101.453 26.2652 100.944 25.7004 100.097L24.7401 98.5154L21.0686 102.074L21.3511 102.526C22.7632 104.786 25.3615 106.254 28.3552 106.254C32.8739 106.254 36.5454 102.752 36.5454 98.4589C36.5454 94.1093 32.8739 90.6635 28.3552 90.6635ZM56.0891 91.0589C51.9093 91.7933 48.1813 95.0131 48.1813 100.605C48.1813 102.752 49.9323 104.616 52.1352 104.616C54.2816 104.616 56.0326 102.808 56.0891 100.718V91.0589ZM42.5893 92.2452C40.3864 92.2452 38.6354 94.1093 38.6354 96.2558C38.6354 102.752 43.5495 105.972 48.5202 105.972C49.0285 105.972 49.5934 105.915 50.1018 105.859C48.0118 104.899 46.5432 102.752 46.5432 100.323V96.1429C46.4867 94.0528 44.7357 92.2452 42.5893 92.2452ZM71.1705 94.9001C70.2103 96.9902 68.0639 98.4024 65.5786 98.4024H61.3422C59.1958 98.4589 57.3883 100.21 57.3883 102.3C57.3883 104.447 59.2523 106.198 61.4552 106.198C68.7417 106.254 71.9613 100.266 71.1705 94.9001ZM36.489 108.853C27.5079 108.853 20.1649 116.196 20.1649 125.234H29.033C29.033 121.111 32.3656 117.778 36.489 117.778V108.853ZM20.1649 108.853L9.20686 119.868V108.853H3.84082V125.234H11.2968L20.1649 116.309V108.853ZM48.4072 108.853C45.8654 108.853 43.3801 110.039 41.5726 111.847C38.7483 114.727 37.5057 119.134 39.878 123.144L41.855 121.167C40.7253 118.682 41.2901 115.914 43.4366 113.711C44.9052 112.242 46.5997 111.508 48.2942 111.508C49.9323 111.508 51.6268 112.185 53.039 113.654L56.9364 117.552C56.1456 119.134 56.428 121.111 57.7272 122.41C58.518 123.257 59.5912 123.653 60.6644 123.653C61.7376 123.653 62.8108 123.257 63.6016 122.41C65.2396 120.772 65.2396 118.117 63.6016 116.479C62.8108 115.631 61.7376 115.236 60.6644 115.236C60.043 115.236 59.3652 115.405 58.8004 115.688L54.9029 111.79C52.926 109.7 50.6101 108.853 48.4072 108.853ZM60.7209 120.998C60.3255 120.998 59.9301 120.828 59.6477 120.546C59.0263 119.924 59.0263 118.964 59.6477 118.343C59.9301 118.06 60.3255 117.891 60.7209 117.891C61.1163 117.891 61.5117 118.06 61.7941 118.343C62.4154 118.964 62.4154 119.924 61.7941 120.546C61.5117 120.828 61.1163 120.998 60.7209 120.998ZM61.5117 108.853C60.043 108.853 58.518 109.248 57.0494 110.095L59.0263 112.073C59.8736 111.677 60.7209 111.508 61.5681 111.508C63.2627 111.508 64.9572 112.242 66.4258 113.711C69.2501 116.592 69.363 120.433 66.4823 123.37L62.5849 127.268C62.02 126.985 61.3422 126.816 60.7209 126.816C59.6477 126.816 58.5745 127.211 57.7837 128.059C56.1456 129.697 56.1456 132.352 57.7837 133.99C58.5745 134.837 59.6477 135.233 60.7209 135.233C61.7941 135.233 62.8673 134.837 63.6581 133.99C64.9572 132.691 65.2396 130.714 64.4489 129.132L68.3463 125.234C72.8086 120.772 71.6224 115.179 68.2898 111.79C66.5388 110.039 64.0535 108.853 61.5117 108.853ZM60.7209 132.578C60.3255 132.578 59.9301 132.408 59.6477 132.126C59.0263 131.504 59.0263 130.544 59.6477 129.923C59.9301 129.64 60.3255 129.471 60.7209 129.471C61.1163 129.471 61.5117 129.64 61.7941 129.923C62.4154 130.544 62.4154 131.504 61.7941 132.126C61.5117 132.465 61.1163 132.578 60.7209 132.578ZM49.198 115.236C48.1248 115.236 47.0516 115.631 46.2608 116.479C44.9616 117.778 44.6792 119.755 45.47 121.337L41.5726 125.234C37.1103 129.697 38.2965 135.289 41.6291 138.678C43.4366 140.486 45.8654 141.672 48.4637 141.672C49.9323 141.672 51.4574 141.277 52.926 140.43L50.949 138.452C50.1018 138.848 49.2545 139.017 48.4072 139.017C46.7127 139.017 45.0181 138.283 43.5495 136.814C40.7253 133.933 40.6123 130.092 43.493 127.155L47.3905 123.257C47.9553 123.54 48.6332 123.709 49.2545 123.709C50.3277 123.709 51.4009 123.314 52.1917 122.466C53.8297 120.828 53.8297 118.173 52.1917 116.535C51.3444 115.688 50.2712 115.236 49.198 115.236ZM49.198 120.998C48.8026 120.998 48.4072 120.828 48.1248 120.546C47.5035 119.924 47.5035 118.964 48.1248 118.343C48.4072 118.06 48.8026 117.891 49.198 117.891C49.5934 117.891 49.9888 118.06 50.2712 118.343C50.8925 118.964 50.8925 119.924 50.2712 120.546C49.9888 120.828 49.5934 120.998 49.198 120.998ZM36.5454 125.234H29.0895L20.2214 134.159V141.616L31.1794 130.601V141.616H36.5454V125.234ZM20.1649 125.234H11.2968C11.2968 129.358 7.9642 132.691 3.84082 132.691V144.214V141.616C12.8784 141.672 20.1649 134.329 20.1649 125.234ZM49.198 126.872C48.1248 126.872 47.0516 127.268 46.2608 128.115C44.6227 129.753 44.6227 132.408 46.2608 134.046C47.0516 134.894 48.1248 135.289 49.198 135.289C49.8193 135.289 50.4971 135.12 51.062 134.837L54.9594 138.735C56.9929 140.768 59.3088 141.672 61.5117 141.672C64.0535 141.672 66.5388 140.486 68.3463 138.678C71.1705 135.798 72.4132 131.391 70.0408 127.381L68.0639 129.358C69.1936 131.843 68.6287 134.611 66.4823 136.814C65.0137 138.283 63.3192 139.017 61.6246 139.017C59.9866 139.017 58.292 138.339 56.8799 136.871L52.9825 132.973C53.7733 131.391 53.4908 129.414 52.1917 128.115C51.3444 127.268 50.2712 126.872 49.198 126.872ZM49.198 132.578C48.8026 132.578 48.4072 132.408 48.1248 132.126C47.5035 131.504 47.5035 130.544 48.1248 129.923C48.4072 129.64 48.8026 129.471 49.198 129.471C49.5934 129.471 49.9888 129.64 50.2712 129.923C50.8925 130.544 50.8925 131.504 50.2712 132.126C49.9888 132.465 49.5934 132.578 49.198 132.578ZM63.4321 144.271C59.0828 144.271 55.5808 147.773 55.5808 152.123H62.5284C65.4656 151.501 67.8944 149.355 68.9676 146.587C67.5555 145.175 65.635 144.271 63.4321 144.271ZM46.4302 144.271C44.2838 144.271 42.3069 145.175 40.8947 146.587C41.968 149.355 44.3403 151.501 47.334 152.123H54.2816C54.2816 147.773 50.7796 144.271 46.4302 144.271ZM34.286 144.271H24.7966C20.3908 144.271 18.9222 149.92 23.4975 152.574C24.8531 150.202 27.169 148.733 29.6543 148.281C26.6606 149.694 24.5707 152.744 24.5707 156.246C20.6168 156.246 17.2842 153.365 16.7193 149.355C16.4369 146.7 14.6859 144.61 12.1441 144.61C11.7487 144.61 11.3533 144.666 10.9014 144.779C12.2005 146.869 12.7654 149.355 12.5395 151.784C11.5792 148.507 8.58553 146.304 5.25294 146.304C4.80106 146.304 4.2927 146.361 3.84082 146.417V155.907C3.84082 158.449 5.70481 160.031 7.79475 160.031C9.31983 160.031 11.0144 159.184 12.1441 157.207C9.77171 155.851 8.30311 153.535 7.90771 151.049C9.31983 154.043 12.3135 156.133 15.8721 156.133C15.8721 160.087 12.9913 163.477 8.98092 164.042C5.93075 164.381 3.67137 166.697 4.46215 169.86C6.26966 168.787 8.30311 168.165 10.393 168.165C10.7319 168.165 11.0709 168.165 11.4662 168.222C7.73826 169.351 5.42239 173.136 6.15669 176.921H15.6461C20.0519 176.921 21.5205 171.272 16.9453 168.617C15.5896 170.99 13.2738 172.458 10.7884 172.91C13.7821 171.498 15.8721 168.448 15.8721 164.945C19.826 164.945 23.1586 167.826 23.7234 171.837C24.0058 174.492 25.7569 176.582 28.2987 176.582C28.6941 176.582 29.0895 176.525 29.5413 176.412C28.2422 174.322 27.6773 171.837 27.9033 169.408C28.8635 172.684 31.8572 174.887 35.1898 174.887C35.6417 174.887 36.15 174.831 36.6019 174.774V165.284C36.6019 162.742 34.7379 161.161 32.648 161.161C31.1229 161.161 29.4284 162.008 28.2987 163.985C30.671 165.341 32.1396 167.657 32.535 170.142C31.1229 167.148 28.1292 165.058 24.5707 165.058C24.5707 161.104 27.4514 157.715 31.4618 157.15C34.512 156.811 36.7714 154.495 35.9806 151.332C34.1731 152.405 32.1396 153.026 30.0497 153.026C29.7108 153.026 29.3719 153.026 28.9765 152.97C32.761 151.897 35.0203 148.112 34.286 144.271ZM71.2835 152.123H62.5849C58.8569 152.913 55.9762 156.077 55.6372 159.974H63.4886C67.7814 159.974 71.2835 156.472 71.2835 152.123ZM47.334 152.123H38.6354C38.6354 156.472 42.1374 159.974 46.4867 159.974H54.3381C53.8862 156.133 51.062 152.97 47.334 152.123ZM63.4321 161.33H55.5808C55.9762 165.228 58.8004 168.391 62.5284 169.182H71.227C71.2835 164.889 67.7815 161.33 63.4321 161.33ZM54.2816 161.33H46.4302C42.0809 161.33 38.5789 164.832 38.5789 169.182H47.2775C51.062 168.391 53.8862 165.228 54.2816 161.33ZM62.5849 169.238H55.6372C55.6372 173.588 59.1393 177.09 63.4886 177.09C65.635 177.09 67.612 176.187 69.0241 174.774C67.9509 172.006 65.5221 169.86 62.5849 169.238ZM54.2816 169.238H47.334C44.3968 169.86 41.968 172.006 40.8947 174.774C42.3069 176.187 44.2838 177.09 46.4302 177.09C50.7796 177.09 54.2816 173.532 54.2816 169.238ZM53.7168 179.18L57.8966 194.263L53.6038 196.635L62.3589 198.895C63.0932 199.064 63.884 199.177 64.6183 199.177C66.9342 199.177 69.0806 198.16 70.3797 195.957C72.2437 192.851 71.114 188.896 67.8944 187.089L65.748 185.902C65.2961 185.677 64.8442 185.564 64.3359 185.564C63.3756 185.564 62.4154 186.072 61.9071 186.919C61.1163 188.218 61.5681 189.857 62.9238 190.591C63.3756 190.817 63.8275 190.93 64.3359 190.93C65.2396 190.93 66.0869 190.535 66.5953 189.8C66.5953 190.93 65.9739 192.06 64.8442 192.681C64.2794 192.964 63.7146 193.133 63.0932 193.133C61.907 193.133 60.7209 192.512 60.0995 191.438C59.5912 190.591 59.4782 189.574 59.7606 188.67L61.2292 183.417L53.7168 179.18ZM36.2065 179.18H28.5811C24.2318 179.18 20.6733 182.796 20.6733 187.202H28.4681V183.699L36.2065 179.18ZM11.7487 179.18V187.032H8.3031L3.84082 179.18V186.919C3.84082 191.325 7.39935 194.941 11.7487 194.941V187.089H15.1942L19.6565 194.941V187.202C19.713 182.739 16.1545 179.18 11.7487 179.18ZM45.357 179.632C41.6291 179.632 38.6354 182.57 38.6354 186.128V188.501C38.6354 189.97 39.878 191.156 41.4031 191.156C42.9282 191.156 44.1709 189.97 44.1709 188.501C44.1709 187.089 43.0412 185.959 41.6291 185.846C42.1374 185.564 42.7587 185.394 43.3236 185.394C43.8884 185.394 44.5098 185.564 45.0746 185.846C46.7127 186.75 47.334 188.84 46.3738 190.422C45.8654 191.269 45.0181 191.834 44.0579 192.116L38.6354 193.528V201.945L50.0453 190.93L54.3381 193.302L51.9657 184.829C51.1185 181.779 48.8026 179.632 45.357 179.632ZM36.2065 187.202H28.4116V190.704L20.6168 195.223H28.2422C32.7045 195.223 36.2065 191.608 36.2065 187.202ZM51.0055 194.376L44.5663 200.589C42.2504 202.849 41.4596 205.843 43.2106 208.724C44.4533 210.814 46.7127 212 49.0285 212C50.1582 212 51.3444 211.718 52.4176 211.153L54.564 209.966C55.9197 209.232 56.3715 207.594 55.5808 206.295C55.0724 205.447 54.1122 204.939 53.1519 204.939C52.7001 204.939 52.1917 205.052 51.7398 205.278C50.4972 205.956 49.9888 207.481 50.6101 208.724C49.5934 208.159 48.9156 207.086 48.9156 205.843C48.9156 203.979 50.4971 202.453 52.4176 202.453C53.4343 202.453 54.3946 202.905 55.0724 203.583L59.0263 207.424L66.5953 203.188L51.0055 199.177V194.376ZM19.713 195.901H12.0876C7.73826 195.901 4.17973 199.516 4.17973 203.922H11.9746V200.42L19.713 195.901ZM20.6733 196.24V203.922C20.6733 208.328 24.2318 211.944 28.5811 211.944V204.092H32.0267L36.489 211.944V204.205C36.489 199.799 32.9304 196.183 28.5811 196.183V204.035H25.1355L20.6733 196.24ZM19.713 203.922H11.9181V207.424L4.12324 211.944H11.7487C16.1545 211.944 19.713 208.385 19.713 203.922Z" fill="#F9F7F2"/>
<path d="M54.1123 22.0868C54.1123 28.7524 58.5746 33.0454 64.449 33.0454C67.0473 33.0454 69.4196 32.1981 71.1707 30.7294V13.4441C69.3632 11.9754 67.0473 11.1281 64.449 11.1281C58.5181 11.1281 54.1123 15.3647 54.1123 22.0868Z" fill="#020203"/>
<path d="M64.4492 40.0501C53.7171 40.0501 45.8658 32.5937 45.8658 22.0869C45.8658 11.5801 53.7171 4.18012 64.4492 4.18012C66.8781 4.18012 69.1375 4.51905 71.1709 5.2534V0H48.9724V8.0778L29.8806 30.786C44.7361 32.7066 52.2485 41.5753 52.2485 53.3813C52.2485 60.2163 49.5938 66.5995 44.0583 71.175H71.1709V38.9768C69.1375 39.6547 66.8781 40.0501 64.4492 40.0501Z" fill="#020203"/>
<path d="M31.123 10.5632H0V59.3125C5.5355 63.0972 13.048 65.4132 20.8428 65.4132C31.2925 65.4132 37.5058 60.7812 37.5058 53.4942C37.5058 46.4332 32.3092 41.8012 20.391 41.8012H13.2174V31.8028L31.123 10.5632Z" fill="#020203"/>
<path d="M136.015 52.5905C136.241 52.5905 136.41 52.647 136.636 52.76C136.806 52.8729 136.919 52.9859 136.919 53.0424C136.184 58.6912 135.846 63.8316 135.846 68.5202C135.846 69.085 135.733 69.5369 135.507 69.7629C135.281 70.0453 134.829 70.1583 134.207 70.1583H86.0826C85.8566 70.1583 85.7437 69.9324 85.7437 69.4805C85.7437 69.0285 85.8566 68.8026 86.0826 68.8026C88.3984 68.8026 90.093 68.6331 91.1662 68.2377C92.2394 67.8988 92.9172 67.1644 93.3126 66.0912C93.6515 65.0179 93.8775 63.4362 93.8775 61.2332V10.8458C93.8775 8.64274 93.708 7.06107 93.3126 6.04428C92.9737 5.0275 92.2394 4.34964 91.1097 3.89774C90.0365 3.50232 88.3419 3.27637 86.0826 3.27637C85.8566 3.27637 85.7437 3.05042 85.7437 2.59851C85.7437 2.14661 85.8566 1.92065 86.0826 1.92065H132.174C132.908 1.92065 133.247 2.25958 133.247 2.88095L133.473 17.3419C133.473 17.5114 133.247 17.6244 132.852 17.6808C132.456 17.7373 132.231 17.6808 132.174 17.4549C130.988 13.2748 129.067 10.1114 126.3 8.07786C123.532 6.04429 119.917 5.0275 115.398 5.0275H112.122C109.919 5.0275 108.338 5.47941 107.321 6.4397C106.304 7.4 105.796 8.81221 105.796 10.7893V32.9891H114.833C119.013 32.9891 122.289 32.2548 124.492 30.7861C126.752 29.3174 127.881 27.2838 127.881 24.6854C127.881 24.4594 128.107 24.3464 128.503 24.3464C128.898 24.3464 129.124 24.4594 129.124 24.6854L129.011 34.4578L129.124 39.6547C129.293 42.1402 129.35 44.0608 129.35 45.5295C129.35 45.699 129.124 45.7554 128.672 45.7554C128.22 45.7554 127.994 45.699 127.994 45.5295C127.994 42.5356 126.864 40.2196 124.549 38.525C122.289 36.8303 118.957 35.983 114.72 35.983H105.796V60.5553C105.796 62.6454 106.191 64.2271 106.982 65.2438C107.773 66.2606 109.072 66.769 110.766 66.769H114.381C120.03 66.769 124.549 65.5828 127.994 63.2668C131.383 60.9507 133.925 57.3355 135.507 52.4775C135.563 52.647 135.733 52.5905 136.015 52.5905Z" fill="#020203"/>
<path d="M157.14 20.0533C158.496 22.0869 160.134 23.838 162.111 25.3632C164.088 26.8883 166.743 28.7525 170.075 30.899C173.69 33.215 176.628 35.2486 178.774 36.9997C180.977 38.7509 182.784 40.8409 184.31 43.3829C185.835 45.8684 186.569 48.7493 186.569 52.0256C186.569 55.8103 185.552 59.1431 183.519 62.0804C181.485 65.0178 178.661 67.2774 175.103 68.9155C171.488 70.5537 167.477 71.3445 163.071 71.3445C159.795 71.3445 156.406 70.8926 152.848 69.9888C149.289 69.085 146.917 68.0682 145.674 66.9949C145.335 66.7125 145.053 66.43 144.883 66.2041C144.714 65.9781 144.601 65.5262 144.601 64.9613L144.262 47.676V47.563C144.262 47.2806 144.431 47.1111 144.827 47.0546C145.166 46.9981 145.392 47.1676 145.505 47.45C147.708 51.8561 149.572 55.4713 151.21 58.2393C152.848 61.0072 154.881 63.4362 157.423 65.5262C159.908 67.6163 162.789 68.6896 165.952 68.6896C168.833 68.6896 171.262 67.8987 173.126 66.3735C174.99 64.7919 175.95 62.1369 175.95 58.3522C175.95 55.1324 175.216 52.3645 173.803 49.992C172.391 47.6195 170.64 45.5859 168.607 43.8913C166.573 42.1966 163.806 40.2195 160.247 37.9035C156.745 35.644 154.034 33.7234 152.113 32.1417C150.193 30.5601 148.555 28.6395 147.143 26.3799C145.787 24.1204 145.053 21.4655 145.053 18.4151C145.053 14.5739 146.182 11.2976 148.385 8.69917C150.588 6.04423 153.469 4.06714 156.915 2.82441C160.417 1.58167 164.032 0.903809 167.929 0.903809C170.471 0.903809 173.069 1.12976 175.667 1.63816C178.266 2.09006 180.356 2.65494 181.994 3.3328C182.672 3.61524 183.067 3.95417 183.293 4.23661C183.519 4.57554 183.632 4.97095 183.632 5.47935V21.4655C183.632 21.6914 183.462 21.8609 183.067 21.9739C182.728 22.0869 182.502 22.0304 182.389 21.8044L181.542 19.7143C179.734 15.1388 177.588 11.2411 175.159 8.0778C172.73 4.85798 169.341 3.27631 164.992 3.27631C162.111 3.27631 159.739 4.12363 157.875 5.76179C156.011 7.45643 155.107 9.88542 155.107 13.0488C155.164 15.7037 155.841 18.0197 157.14 20.0533Z" fill="#020203"/>
<path d="M214.02 70.2148C212.834 70.1583 211.422 70.0453 209.728 69.9888C208.033 69.9323 206.113 69.8758 204.023 69.8758L195.945 69.9888C194.477 70.0453 192.556 70.1018 190.071 70.1018C189.901 70.1018 189.845 69.8758 189.845 69.4239C189.845 68.972 189.901 68.7461 190.071 68.7461C192.387 68.7461 194.081 68.5766 195.211 68.1812C196.284 67.8423 197.019 67.1079 197.414 66.0346C197.809 64.9614 198.035 63.3797 198.035 61.1767V10.7893C198.035 8.58623 197.809 7.00455 197.414 5.98777C197.019 4.97098 196.284 4.29313 195.211 3.84122C194.138 3.4458 192.5 3.21985 190.24 3.21985C190.014 3.21985 189.901 2.9939 189.901 2.54199C189.901 2.09009 190.014 1.86414 190.24 1.86414L196.002 1.97711C199.334 2.14658 201.989 2.20306 203.966 2.20306C206.96 2.20306 210.01 2.09009 213.117 1.86414C216.901 1.69467 219.443 1.63818 220.742 1.63818C228.085 1.63818 234.581 3.10687 240.286 5.98777C245.991 8.86866 250.397 12.8228 253.503 17.8503C256.61 22.8777 258.191 28.47 258.191 34.7402C258.191 41.8012 256.553 48.0149 253.334 53.3813C250.114 58.8042 245.765 62.9843 240.286 65.9217C234.807 68.8591 228.819 70.3277 222.267 70.3277C219.951 70.5537 217.24 70.4407 214.02 70.2148ZM233.508 64.5095C237.066 62.137 239.834 58.6347 241.811 54.0027C243.788 49.3707 244.805 43.8348 244.805 37.3387C244.805 31.1815 243.844 25.5891 241.98 20.5052C240.116 15.4778 237.405 11.4671 233.903 8.58622C230.401 5.70533 226.391 4.23664 221.815 4.23664C217.297 4.23664 214.246 4.68854 212.552 5.53587C210.857 6.38319 210.066 8.2473 210.066 11.0717V60.0469C210.066 62.9278 210.801 65.0179 212.326 66.2041C213.851 67.3904 216.788 68.0117 221.137 68.0117C225.826 68.0117 229.949 66.882 233.508 64.5095Z" fill="#020203"/>
<path d="M331 69.4238C331 69.8757 330.831 70.1017 330.435 70.1017C328.967 70.1017 326.764 70.0452 323.714 69.8757C320.494 69.7062 318.235 69.6498 316.879 69.6498C315.071 69.6498 312.868 69.7062 310.214 69.8757C307.728 70.0452 305.808 70.1017 304.339 70.1017C304.057 70.1017 303.887 69.8757 303.887 69.4238C303.887 68.9719 304.057 68.7459 304.339 68.7459C306.203 68.7459 307.559 68.52 308.406 68.1246C309.253 67.7292 309.649 66.9948 309.649 65.978C309.649 64.7353 308.915 62.7017 307.446 59.7643L296.149 37.4515H276.775L269.036 54.5109C268.076 56.601 267.624 58.5781 267.624 60.3857C267.624 62.9842 268.528 65.0177 270.392 66.4864C272.256 67.9551 274.741 68.6895 277.848 68.6895C278.187 68.6895 278.413 68.9154 278.413 69.3673C278.413 69.8192 278.243 70.0452 277.848 70.0452C276.549 70.0452 274.628 69.9887 272.2 69.8192C269.432 69.6498 267.059 69.5933 265.026 69.5933C263.049 69.5933 260.733 69.6498 257.965 69.8192C255.48 69.9887 253.503 70.0452 251.978 70.0452C251.696 70.0452 251.526 69.8192 251.526 69.3673C251.526 68.9154 251.696 68.6895 251.978 68.6895C254.011 68.6895 255.706 68.294 257.118 67.4467C258.474 66.5994 259.886 65.1307 261.241 62.9842C262.597 60.8376 264.235 57.6743 266.156 53.4377L289.766 1.52509C289.936 1.29913 290.218 1.18616 290.726 1.18616C291.291 1.18616 291.63 1.29913 291.687 1.52509L318.912 55.0758C321.454 60.2162 323.544 63.775 325.239 65.7521C326.933 67.7292 328.628 68.6895 330.435 68.6895C330.831 68.8024 331 69.0284 331 69.4238ZM278.243 34.5142H294.68L285.982 17.3418L278.243 34.5142Z" fill="#020203"/>
<path d="M105.062 106.085V108.457H93.6519V93.2619H104.723V95.6344H96.4196V99.5886H103.763V101.905H96.4196V106.085H105.062Z" fill="#F9F7F2"/>
<path d="M124.379 93.2619V108.457H122.007L113.647 98.1764V108.457H110.823V93.2619H113.139L121.499 103.543V93.2619H124.379Z" fill="#F9F7F2"/>
<path d="M129.971 100.888C129.971 96.3687 133.473 93.0924 138.105 93.0924C140.591 93.0924 142.737 93.9962 144.149 95.6344L142.342 97.329C141.212 96.1428 139.856 95.5214 138.275 95.5214C135.112 95.5214 132.852 97.7244 132.852 100.888C132.852 104.051 135.112 106.254 138.275 106.254C139.856 106.254 141.212 105.689 142.342 104.447L144.149 106.198C142.737 107.836 140.591 108.74 138.105 108.74C133.417 108.683 129.971 105.407 129.971 100.888Z" fill="#F9F7F2"/>
<path d="M148.046 100.888C148.046 96.3687 151.548 93.0924 156.237 93.0924C160.925 93.0924 164.427 96.3687 164.427 100.888C164.427 105.407 160.925 108.683 156.237 108.683C151.548 108.683 148.046 105.35 148.046 100.888ZM161.546 100.888C161.546 97.7809 159.287 95.5214 156.18 95.5214C153.13 95.5214 150.814 97.7809 150.814 100.888C150.814 103.995 153.074 106.254 156.18 106.254C159.287 106.198 161.546 103.938 161.546 100.888Z" fill="#F9F7F2"/>
<path d="M183.519 93.2619V108.457H181.203L172.843 98.1764V108.457H170.019V93.2619H172.335L180.695 103.543V93.2619H183.519Z" fill="#F9F7F2"/>
<path d="M193.291 95.6344H188.264V93.2619H201.142V95.6344H196.115V108.457H193.291V95.6344Z" fill="#F9F7F2"/>
<path d="M215.828 108.457L212.722 103.995C212.552 103.995 212.326 103.995 212.157 103.995H208.711V108.401H205.887V93.2053H212.157C216.167 93.2053 218.652 95.2389 218.652 98.6282C218.652 100.944 217.466 102.639 215.433 103.43L218.935 108.401H215.828V108.457ZM212.044 95.6343H208.768V101.679H212.044C214.529 101.679 215.828 100.549 215.828 98.6282C215.828 96.7076 214.529 95.6343 212.044 95.6343Z" fill="#F9F7F2"/>
<path d="M223.284 100.888C223.284 96.3687 226.786 93.0924 231.474 93.0924C236.163 93.0924 239.665 96.3687 239.665 100.888C239.665 105.407 236.163 108.683 231.474 108.683C226.786 108.683 223.284 105.35 223.284 100.888ZM236.84 100.888C236.84 97.7809 234.581 95.5214 231.474 95.5214C228.424 95.5214 226.108 97.7809 226.108 100.888C226.108 103.995 228.368 106.254 231.474 106.254C234.525 106.198 236.84 103.938 236.84 100.888Z" fill="#F9F7F2"/>
<path d="M252.599 106.876L253.56 104.672C254.802 105.633 256.723 106.367 258.587 106.367C260.959 106.367 261.976 105.52 261.976 104.39C261.976 101.114 252.938 103.26 252.938 97.6115C252.938 95.1825 254.915 93.0924 259.039 93.0924C260.846 93.0924 262.767 93.5443 264.122 94.4481L263.218 96.5947C261.863 95.8038 260.338 95.4084 259.039 95.4084C256.666 95.4084 255.762 96.3122 255.762 97.4985C255.762 100.718 264.8 98.6283 264.8 104.221C264.8 106.65 262.823 108.74 258.643 108.74C256.214 108.683 253.842 107.949 252.599 106.876Z" fill="#F9F7F2"/>
<path d="M269.997 101.848V93.2619H272.821V101.735C272.821 104.842 274.233 106.198 276.662 106.198C279.091 106.198 280.503 104.842 280.503 101.735V93.2619H283.271V101.848C283.271 106.254 280.785 108.683 276.606 108.683C272.539 108.683 269.997 106.254 269.997 101.848Z" fill="#F9F7F2"/>
<path d="M289.879 93.2619H292.704V106.085H300.668V108.457H289.879V93.2619Z" fill="#F9F7F2"/>
<path d="M107.66 136.362V126.307L102.689 134.668H101.447L96.4759 126.477V136.419H93.7646V121.223H96.0805L102.124 131.278L108.055 121.223H110.371V136.419H107.66V136.362Z" fill="#F9F7F2"/>
<path d="M126.921 132.86H119.296L117.771 136.362H114.833L121.668 121.167H124.436L131.327 136.362H128.39L126.921 132.86ZM125.961 130.601L123.08 123.935L120.256 130.601H125.961Z" fill="#F9F7F2"/>
<path d="M138.218 123.54H133.191V121.167H146.069V123.54H141.042V136.362H138.218V123.54Z" fill="#F9F7F2"/>
<path d="M149.515 128.736C149.515 124.217 153.017 120.941 157.705 120.941C162.394 120.941 165.896 124.217 165.896 128.736C165.896 133.255 162.394 136.532 157.705 136.532C153.017 136.532 149.515 133.255 149.515 128.736ZM163.071 128.736C163.071 125.63 160.812 123.37 157.705 123.37C154.655 123.37 152.339 125.63 152.339 128.736C152.339 131.843 154.599 134.103 157.705 134.103C160.756 134.103 163.071 131.843 163.071 128.736Z" fill="#F9F7F2"/>
<path d="M181.881 128.567H184.535V134.611C182.954 135.91 180.751 136.532 178.605 136.532C173.916 136.532 170.414 133.255 170.414 128.736C170.414 124.217 173.916 120.941 178.661 120.941C181.203 120.941 183.349 121.788 184.761 123.427L182.954 125.178C181.768 123.991 180.412 123.427 178.774 123.427C175.554 123.427 173.239 125.63 173.239 128.793C173.239 131.9 175.498 134.159 178.718 134.159C179.791 134.159 180.864 133.933 181.824 133.368V128.567H181.881Z" fill="#F9F7F2"/>
<path d="M200.86 136.362L197.753 131.9C197.584 131.9 197.358 131.9 197.188 131.9H193.743V136.306H190.918V121.111H197.132C201.142 121.111 203.628 123.144 203.628 126.533C203.628 128.849 202.441 130.544 200.408 131.335L203.91 136.306H200.86V136.362ZM197.019 123.54H193.743V129.584H197.019C199.504 129.584 200.803 128.454 200.803 126.533C200.803 124.613 199.504 123.54 197.019 123.54Z" fill="#F9F7F2"/>
<path d="M208.316 128.736C208.316 124.217 211.818 120.941 216.506 120.941C221.194 120.941 224.696 124.217 224.696 128.736C224.696 133.255 221.194 136.532 216.506 136.532C211.761 136.588 208.316 133.255 208.316 128.736ZM221.816 128.736C221.816 125.63 219.556 123.37 216.449 123.37C213.343 123.37 211.083 125.63 211.083 128.736C211.083 131.843 213.343 134.103 216.449 134.103C219.556 134.103 221.816 131.843 221.816 128.736Z" fill="#F9F7F2"/>
<path d="M228.989 134.724L229.949 132.521C231.192 133.481 233.112 134.216 234.976 134.216C237.349 134.216 238.365 133.368 238.365 132.239C238.365 128.962 229.328 131.109 229.328 125.46C229.328 123.031 231.305 120.941 235.428 120.941C237.236 120.941 239.156 121.393 240.512 122.297L239.608 124.5C238.252 123.709 236.727 123.314 235.428 123.314C233.056 123.314 232.152 124.217 232.152 125.404C232.152 128.623 241.19 126.533 241.19 132.126C241.19 134.555 239.213 136.645 235.033 136.645C232.604 136.588 230.232 135.854 228.989 134.724Z" fill="#F9F7F2"/>
<path d="M245.257 134.724L246.217 132.521C247.46 133.481 249.38 134.216 251.244 134.216C253.616 134.216 254.633 133.368 254.633 132.239C254.633 128.962 245.595 131.109 245.595 125.46C245.595 123.031 247.572 120.941 251.696 120.941C253.503 120.941 255.424 121.393 256.779 122.297L255.876 124.5C254.52 123.709 252.995 123.314 251.696 123.314C249.323 123.314 248.42 124.217 248.42 125.404C248.42 128.623 257.457 126.533 257.457 132.126C257.457 134.555 255.48 136.645 251.3 136.645C248.872 136.588 246.499 135.854 245.257 134.724Z" fill="#F9F7F2"/>
<path d="M274.233 133.99V136.362H262.823V121.167H273.894V123.54H265.591V127.494H272.934V129.81H265.591V133.99H274.233Z" fill="#F9F7F2"/>
<path d="M293.494 121.167V136.362H291.179L282.819 126.082V136.362H279.995V121.167H282.31L290.67 131.448V121.167H293.494Z" fill="#F9F7F2"/>
<path d="M298.917 134.724L299.877 132.521C301.12 133.481 303.04 134.216 304.904 134.216C307.276 134.216 308.293 133.368 308.293 132.239C308.293 128.962 299.256 131.109 299.256 125.46C299.256 123.031 301.233 120.941 305.356 120.941C307.163 120.941 309.084 121.393 310.44 122.297L309.536 124.5C308.18 123.709 306.655 123.314 305.356 123.314C302.984 123.314 302.08 124.217 302.08 125.404C302.08 128.623 311.117 126.533 311.117 132.126C311.117 134.555 309.14 136.645 304.961 136.645C302.532 136.588 300.159 135.854 298.917 134.724Z" fill="#F9F7F2"/>
<path d="M327.837 133.99V136.362H316.427V121.167H327.498V123.54H319.195V127.494H326.538V129.81H319.195V133.99H327.837Z" fill="#F9F7F2"/>
<path d="M93.708 149.072H100.373C105.287 149.072 108.676 152.122 108.676 156.698C108.676 161.274 105.287 164.324 100.373 164.324H93.708V149.072ZM100.204 161.838C103.593 161.838 105.796 159.748 105.796 156.641C105.796 153.478 103.593 151.445 100.204 151.445H96.5322V161.895H100.204V161.838Z" fill="#F9F7F2"/>
<path d="M125.622 161.895V164.267H114.212V149.072H125.283V151.445H116.98V155.399H124.323V157.715H116.98V161.895H125.622Z" fill="#F9F7F2"/>
<path d="M139.969 149.072H146.634C151.549 149.072 154.938 152.122 154.938 156.698C154.938 161.274 151.549 164.324 146.634 164.324H139.969V149.072ZM146.521 161.838C149.911 161.838 152.113 159.748 152.113 156.641C152.113 153.478 149.911 151.445 146.521 151.445H142.85V161.895H146.521V161.838Z" fill="#F9F7F2"/>
<path d="M170.188 160.709H162.563L161.038 164.211H158.157L164.992 149.016H167.76L174.651 164.211H171.714L170.188 160.709ZM169.228 158.506L166.348 151.84L163.523 158.506H169.228Z" fill="#F9F7F2"/>
<path d="M192.726 149.072V164.267H190.41L182.05 153.987V164.267H179.226V149.072H181.542L189.901 159.353V149.072H192.726Z" fill="#F9F7F2"/>
<path d="M210.632 160.2L212.439 161.951C211.083 163.533 209.05 164.437 206.678 164.493L206.452 165.341C207.751 165.51 208.316 166.245 208.316 167.148C208.316 168.391 207.129 169.238 205.378 169.238C204.588 169.238 203.91 169.069 203.401 168.786L203.91 167.487C204.362 167.713 204.87 167.826 205.378 167.826C206.169 167.826 206.508 167.544 206.508 167.035C206.508 166.64 206.169 166.301 205.378 166.301H204.701L205.209 164.38C201.199 163.872 198.318 160.765 198.318 156.642C198.318 152.122 201.82 148.846 206.452 148.846C208.937 148.846 211.083 149.75 212.496 151.388L210.688 153.083C209.558 151.897 208.203 151.275 206.621 151.275C203.458 151.275 201.199 153.478 201.199 156.642C201.199 159.805 203.458 162.008 206.621 162.008C208.203 162.008 209.558 161.387 210.632 160.2Z" fill="#F9F7F2"/>
<path d="M227.351 160.709H219.726L218.201 164.211H215.263L222.098 149.016H224.866L231.757 164.211H228.82L227.351 160.709ZM226.391 158.506L223.51 151.84L220.686 158.506H226.391Z" fill="#F9F7F2"/>
<path d="M235.089 162.629L236.05 160.426C237.292 161.387 239.213 162.121 241.077 162.121C243.449 162.121 244.466 161.274 244.466 160.144C244.466 156.868 235.428 159.014 235.428 153.365C235.428 150.936 237.405 148.846 241.529 148.846C243.336 148.846 245.257 149.298 246.612 150.202L245.708 152.405C244.353 151.614 242.828 151.219 241.529 151.219C239.156 151.219 238.252 152.122 238.252 153.309C238.252 156.529 247.29 154.439 247.29 160.031C247.29 162.46 245.313 164.55 241.133 164.55C238.704 164.493 236.332 163.759 235.089 162.629Z" fill="#F9F7F2"/>
<path d="M103.536 188.614H95.9109L94.3858 192.116H91.5051L98.3398 176.921H101.108L107.999 192.116H105.061L103.536 188.614ZM102.633 186.411L99.7519 179.745L96.9277 186.411H102.633ZM100.26 175.678H97.8879L100.825 172.684H104.045L100.26 175.678Z" fill="#F9F7F2"/>
<path d="M122.516 192.173L119.409 187.71C119.239 187.71 119.013 187.71 118.844 187.71H115.398V192.116H112.574V176.921H118.844C122.854 176.921 125.34 178.954 125.34 182.344C125.34 184.66 124.154 186.354 122.12 187.145L125.622 192.116H122.516V192.173ZM118.675 179.35H115.398V185.394H118.675C121.16 185.394 122.459 184.264 122.459 182.344C122.459 180.423 121.16 179.35 118.675 179.35Z" fill="#F9F7F2"/>
<path d="M140.93 188.614H133.304L131.779 192.116H128.842L135.676 176.921H138.444L145.335 192.116H142.398L140.93 188.614ZM139.969 186.411L137.089 179.745L134.264 186.411H139.969Z" fill="#F9F7F2"/>
<path d="M163.41 187.992C163.41 190.591 161.377 192.116 157.479 192.116H149.91V176.921H157.027C160.699 176.921 162.619 178.446 162.619 180.875C162.619 182.457 161.828 183.586 160.642 184.208C162.337 184.773 163.41 186.072 163.41 187.992ZM152.734 179.18V183.36H156.745C158.722 183.36 159.795 182.682 159.795 181.27C159.795 179.858 158.665 179.18 156.745 179.18H152.734ZM160.586 187.71C160.586 186.185 159.456 185.507 157.31 185.507H152.734V189.913H157.31C159.456 189.913 160.586 189.235 160.586 187.71Z" fill="#F9F7F2"/>
<path d="M180.469 189.8V192.173H169.059V176.977H180.186V179.35H171.883V183.304H179.226V185.62H171.883V189.8H180.469Z" fill="#F9F7F2"/>
<path d="M184.931 190.535L185.891 188.331C187.134 189.292 189.054 190.026 190.918 190.026C193.29 190.026 194.307 189.179 194.307 188.049C194.307 184.773 185.27 186.919 185.27 181.27C185.27 178.841 187.247 176.751 191.37 176.751C193.177 176.751 195.098 177.203 196.454 178.107L195.55 180.31C194.194 179.519 192.669 179.124 191.37 179.124C188.998 179.124 188.094 180.028 188.094 181.214C188.094 184.434 197.131 182.344 197.131 187.936C197.131 190.365 195.154 192.455 190.975 192.455C188.546 192.342 186.173 191.608 184.931 190.535Z" fill="#F9F7F2"/>
</svg>
