<svg width="331" height="212" viewBox="0 0 331 212" fill="none" xmlns="http://www.w3.org/2000/svg">
<path d="M48.4072 74.0004C50.3277 74.0004 51.9093 75.5256 51.9093 77.3332C51.9093 79.1408 50.3842 80.6095 48.5202 80.666H44.2838C42.3069 80.666 40.4429 81.5698 39.2002 83.0385C39.2567 80.779 40.0475 78.576 41.4596 76.9378C43.0977 75.0172 45.5265 74.0004 48.4072 74.0004ZM12.0311 74.0004C14.6859 74.0004 17.1147 75.2997 18.5268 77.4462L18.5833 77.5027L15.7026 80.2141L15.1378 79.2538C14.4599 78.237 13.3302 77.6722 12.0876 77.6722C10.0541 77.6722 8.41608 79.2538 8.41608 81.2309C8.41608 83.208 10.0541 84.7897 12.0876 84.7897H14.121L17.962 88.4614H12.0311C7.85123 88.4614 4.40567 85.2416 4.40567 81.2309C4.40567 77.2203 7.85123 74.0004 12.0311 74.0004ZM61.5681 74.2264C65.9739 74.2829 70.7187 77.1638 70.7187 83.3775C70.7187 85.2416 69.1936 86.8232 67.3296 86.8232C65.5221 86.8232 63.997 85.298 63.9405 83.4904V79.3103C63.9405 77.3332 63.0367 75.4691 61.5681 74.2264ZM24.5142 75.0172L27.3384 77.7286L26.3782 78.237C25.3615 78.9149 24.7401 79.9882 24.7401 81.1744C24.7401 83.1515 26.3782 84.7332 28.4116 84.7332C30.4451 84.7332 32.0831 83.1515 32.0831 81.1744V79.2538L35.9806 75.5256V81.1744C35.9806 85.1851 32.5915 88.4049 28.3552 88.4049C24.1753 88.4049 20.7297 85.1851 20.7297 81.1744C20.7297 78.6325 22.0854 76.3164 24.3448 75.0172H24.5142ZM57.7272 75.6386C59.5347 75.6386 61.1163 77.2203 61.1163 79.0844C61.1163 84.3942 57.7272 87.1057 54.3381 87.953V79.0279C54.3946 77.1638 55.9197 75.6386 57.7272 75.6386ZM44.0579 83.4904C49.4239 83.4904 52.1352 86.8232 52.9825 90.2125H43.9449C42.0809 90.156 40.5558 88.6873 40.5558 86.8797C40.6123 85.0721 42.1939 83.4904 44.0579 83.4904ZM56.8799 89.4782H65.9175C67.7814 89.5347 69.3065 91.0033 69.3065 92.811C69.3065 94.6186 67.725 96.1438 65.8045 96.1438C60.4949 96.1438 57.7272 92.811 56.8799 89.4782ZM12.0311 91.2293C16.211 91.2293 19.6565 94.4491 19.6565 98.4598C19.6565 101.002 18.3009 103.318 16.0415 104.617L15.9285 104.673L13.1043 101.962L14.0645 101.454C15.0813 100.776 15.7026 99.7025 15.7026 98.5163C15.7026 96.5392 14.0645 94.9575 12.0311 94.9575C9.99765 94.9575 8.35959 96.5392 8.35959 98.5163V100.437L4.46215 104.165V98.5163C4.40567 94.4491 7.85123 91.2293 12.0311 91.2293ZM28.3552 91.2293C32.535 91.2293 35.9806 94.4491 35.9806 98.4598C35.9806 102.47 32.5915 105.69 28.3552 105.69C25.7004 105.69 23.2715 104.391 21.8594 102.244L21.8029 102.188L24.6837 99.4766L25.2485 100.437C25.9263 101.454 27.056 102.019 28.2987 102.019C30.3321 102.019 31.9702 100.437 31.9702 98.4598C31.9702 97.4995 31.5748 96.5957 30.897 95.9178C30.2192 95.24 29.2589 94.901 28.2987 94.901H26.2652L22.4243 91.2293H28.3552ZM55.5243 91.7377V100.663C55.4678 102.527 53.9427 104.052 52.1352 104.052C50.3277 104.052 48.7461 102.47 48.7461 100.606C48.8026 95.2965 52.1352 92.585 55.5243 91.7377ZM42.5893 92.811C44.3968 92.811 45.9219 94.3362 45.9784 96.1438V100.324C45.9784 102.301 46.8821 104.165 48.3507 105.408C43.9449 105.351 39.2002 102.47 39.2002 96.2567C39.2002 94.3926 40.7253 92.811 42.5893 92.811ZM70.7187 96.6522C70.6622 98.9117 69.8714 101.115 68.4593 102.753C66.7647 104.673 64.3359 105.69 61.4552 105.69C59.5347 105.69 57.9531 104.165 57.9531 102.357C57.9531 100.55 59.4782 99.0811 61.3422 99.0247H65.5786C67.612 98.9682 69.476 98.0644 70.7187 96.6522ZM8.64202 109.418V119.869V121.224L9.60225 120.264L19.6 110.209V116.084L11.0709 124.67H4.40567V109.418H8.64202ZM48.4072 109.418C50.6101 109.418 52.7565 110.379 54.564 112.186L58.4615 116.084L58.7439 116.367L59.0828 116.197C59.5912 115.971 60.156 115.802 60.7209 115.802C61.6811 115.802 62.5849 116.197 63.2627 116.875C64.6748 118.287 64.6748 120.603 63.2627 122.015C62.5849 122.693 61.6811 123.089 60.7209 123.089C59.7606 123.089 58.8569 122.693 58.1791 122.015C57.0494 120.886 56.8234 119.191 57.5012 117.835L57.6707 117.496L57.3883 117.214L53.4908 113.316C51.9657 111.791 50.2147 111 48.3507 111C46.4303 111 44.6227 111.791 43.0977 113.373C40.8948 115.632 40.1605 118.457 41.2337 121.112L40.0475 122.298C38.127 118.344 39.8215 114.502 42.0244 112.299C43.7755 110.435 46.0913 109.418 48.4072 109.418ZM60.7209 121.563C61.2857 121.563 61.7941 121.337 62.1895 120.942C62.9803 120.095 62.9803 118.796 62.1895 117.948C61.7941 117.553 61.2857 117.327 60.7209 117.327C60.156 117.327 59.6477 117.553 59.2523 117.948C58.4615 118.796 58.4615 120.095 59.2523 120.942C59.6477 121.337 60.156 121.563 60.7209 121.563ZM61.5117 109.418C63.8275 109.418 66.1434 110.435 67.9509 112.243C71.0011 115.293 72.3002 120.547 68.0074 124.896L64.1099 128.794L63.8275 129.076L63.997 129.415C64.6748 130.827 64.4489 132.522 63.3192 133.595C62.6413 134.273 61.7376 134.669 60.7774 134.669C59.8171 134.669 58.9134 134.273 58.2355 133.595C56.8234 132.183 56.8234 129.867 58.2355 128.455C58.9134 127.777 59.8171 127.382 60.7774 127.382C61.3422 127.382 61.907 127.495 62.4154 127.777L62.7543 127.947L63.0367 127.664L66.9342 123.766C70.0408 120.66 69.9844 116.479 66.8777 113.316C65.3526 111.791 63.5451 110.944 61.6246 110.944C60.7774 110.944 59.9866 111.113 59.1958 111.396L58.0096 110.209C59.0828 109.701 60.269 109.418 61.5117 109.418ZM60.7209 133.143C61.2857 133.143 61.7941 132.918 62.1895 132.522C62.9803 131.675 62.9803 130.376 62.1895 129.528C61.7941 129.133 61.2857 128.907 60.7209 128.907C60.156 128.907 59.6477 129.133 59.2523 129.528C58.4615 130.376 58.4615 131.675 59.2523 132.522C59.6477 132.918 60.156 133.143 60.7209 133.143ZM35.9806 109.418V117.214C32.0267 117.496 28.807 120.66 28.5246 124.67H20.7862C21.0686 116.423 27.7338 109.701 35.9806 109.418ZM49.198 115.802C50.1582 115.802 51.062 116.197 51.7398 116.875C53.1519 118.287 53.1519 120.603 51.7398 122.015C51.062 122.693 50.1582 123.089 49.198 123.089C48.6332 123.089 48.0683 122.976 47.5599 122.693L47.221 122.524L46.9386 122.806L43.0412 126.704C39.9345 129.811 39.991 133.991 43.0977 137.154C44.6227 138.679 46.4303 139.527 48.3507 139.527C49.198 139.527 49.9888 139.357 50.7796 139.075L51.9657 140.261C50.8361 140.826 49.6499 141.108 48.4637 141.108C46.1478 141.108 43.832 140.092 42.0244 138.284C38.9743 135.234 37.6751 129.98 41.968 125.631L45.8654 121.733L46.1478 121.45L45.9784 121.112C45.3006 119.699 45.5265 118.005 46.6562 116.931C47.2775 116.197 48.2378 115.802 49.198 115.802ZM49.198 121.563C49.7628 121.563 50.2712 121.337 50.6666 120.942C51.4574 120.095 51.4574 118.796 50.6666 117.948C50.2712 117.553 49.7628 117.327 49.198 117.327C48.6332 117.327 48.1248 117.553 47.7294 117.948C46.9386 118.796 46.9386 120.095 47.7294 120.942C48.0683 121.337 48.6332 121.563 49.198 121.563ZM35.9806 125.8V141.052H31.7442V130.602V129.246L30.784 130.206L20.7862 140.261V134.386L29.3154 125.8H35.9806ZM19.6 125.8C19.3176 134.104 12.6524 140.769 4.40567 141.052V133.256C8.35959 132.974 11.5792 129.811 11.8616 125.8H19.6ZM49.198 127.438C50.1582 127.438 51.062 127.834 51.7398 128.511C52.8695 129.641 53.0954 131.336 52.4176 132.692L52.2482 133.031L52.5306 133.313L56.428 137.211C57.9531 138.736 59.7041 139.527 61.5681 139.527C63.4886 139.527 65.2961 138.736 66.8212 137.154C69.0241 134.895 69.7584 132.07 68.6852 129.415L69.8714 128.229C71.7919 132.183 70.0973 136.024 67.8944 138.227C66.0869 140.035 63.771 141.052 61.4552 141.052C59.2523 141.052 57.1058 140.092 55.2983 138.284L51.4009 134.386L51.1185 134.104L50.7796 134.273C50.2712 134.499 49.7064 134.669 49.1415 134.669C48.1813 134.669 47.2775 134.273 46.5997 133.595C45.1876 132.183 45.1876 129.867 46.5997 128.455C47.2775 127.777 48.2378 127.438 49.198 127.438ZM49.198 133.143C49.7628 133.143 50.2712 132.918 50.6666 132.522C51.4574 131.675 51.4574 130.376 50.6666 129.528C50.2712 129.133 49.7628 128.907 49.198 128.907C48.6332 128.907 48.1248 129.133 47.7294 129.528C46.9386 130.376 46.9386 131.675 47.7294 132.522C48.0683 132.918 48.6332 133.143 49.198 133.143ZM63.4321 144.837C65.2396 144.837 66.9907 145.514 68.2898 146.701C67.2166 149.186 65.0702 150.937 62.4719 151.559H56.1456C56.4845 147.83 59.6477 144.837 63.4321 144.837ZM46.4302 144.837C50.2712 144.837 53.3779 147.83 53.6603 151.559H47.334C44.7357 150.994 42.5893 149.186 41.5161 146.701C42.9282 145.514 44.6227 144.837 46.4302 144.837ZM33.7777 144.837C34.2296 148.226 32.1396 151.502 28.807 152.462L25.9828 153.31L28.92 153.592C29.2589 153.649 29.6543 153.649 30.0497 153.649C31.9702 153.649 33.8342 153.197 35.5852 152.293C35.6417 153.197 35.4157 154.044 34.9074 154.778C34.1731 155.795 32.8739 156.53 31.3488 156.643C27.1125 157.264 24.0058 160.823 24.0058 165.116V165.681H24.5707C27.7338 165.681 30.671 167.545 32.0267 170.482L33.7777 174.323L33.0999 170.143C32.648 167.545 31.2359 165.342 29.0895 163.873C29.9932 162.574 31.2924 161.783 32.648 161.783C34.3425 161.783 36.0371 163.026 36.0371 165.342V174.38C35.7547 174.436 35.4722 174.436 35.1898 174.436C32.0831 174.436 29.3154 172.346 28.4681 169.409L27.6209 166.584L27.3384 169.522C27.1125 171.781 27.5644 174.097 28.6376 176.187C28.5246 176.187 28.4116 176.187 28.2987 176.187C26.1523 176.187 24.5707 174.493 24.2883 171.951C23.6669 167.658 20.1649 164.551 15.8721 164.551H15.3072V165.116C15.3072 168.336 13.4432 171.273 10.5625 172.572L6.77802 174.323L10.9014 173.645C13.4432 173.194 15.7026 171.781 17.1147 169.578C19.0352 170.934 19.3741 172.798 19.0352 174.041C18.6963 175.227 17.6231 176.526 15.5896 176.526H6.60857C6.15669 173.137 8.24662 169.861 11.5792 168.9L14.4035 168.053L11.4662 167.771C11.1273 167.714 10.7319 167.714 10.3366 167.714C8.41608 167.714 6.55208 168.166 4.80106 169.07C4.74457 168.166 4.97051 167.319 5.47887 166.584C6.21317 165.568 7.51232 164.833 9.03741 164.72C13.2738 164.099 16.3804 160.54 16.3804 156.247V155.682H15.8156C12.6524 155.682 9.71522 153.818 8.35959 150.881L6.60857 147.04L7.28638 151.22C7.73826 153.818 9.15038 156.021 11.2968 157.49C10.393 158.789 9.09389 159.58 7.73826 159.58C6.04372 159.58 4.34918 158.337 4.34918 156.021V146.983C4.6316 146.927 4.91403 146.927 5.19645 146.927C8.3031 146.927 11.0709 149.017 11.9181 151.954L12.7654 154.778L13.0478 151.841C13.2738 149.582 12.8219 147.266 11.7487 145.175C11.8616 145.175 11.9746 145.175 12.0876 145.175C14.234 145.175 15.8156 146.87 16.098 149.412C16.7193 153.705 20.2214 156.812 24.5142 156.812H25.079V156.247C25.079 153.027 26.943 150.09 29.8238 148.791L33.6082 147.04L29.4849 147.717C26.943 148.169 24.6837 149.582 23.2715 151.785C21.3511 150.429 21.0122 148.565 21.3511 147.322C21.69 146.136 22.7632 144.837 24.7966 144.837H33.7777ZM70.7187 152.688C70.4362 156.473 67.2731 159.41 63.4886 159.41H56.3151C56.8799 156.078 59.3652 153.423 62.6978 152.688H70.7187ZM47.2775 152.688C50.6101 153.423 53.0954 156.078 53.6603 159.41H46.4867C42.6458 159.41 39.5391 156.417 39.2567 152.688H47.2775ZM63.4321 161.896C67.2731 161.896 70.3797 164.89 70.6622 168.618H62.5849C59.2523 167.884 56.7669 165.229 56.2021 161.896H63.4321ZM53.6603 161.896C53.0954 165.229 50.6101 167.884 47.2775 168.618H39.2002C39.4826 164.833 42.6458 161.896 46.4302 161.896H53.6603ZM62.5284 169.804C65.1267 170.369 67.2731 172.177 68.3463 174.662C66.9907 175.905 65.2961 176.526 63.4886 176.526C59.6477 176.526 56.541 173.533 56.2586 169.804H62.5284ZM53.7168 169.804C53.4344 173.589 50.2712 176.526 46.4867 176.526C44.6792 176.526 42.9282 175.849 41.6291 174.662C42.7023 172.177 44.8487 170.426 47.447 169.804H53.7168ZM34.1731 179.746L28.1857 183.248L27.9033 183.418V183.757V186.694H21.2946C21.577 182.853 24.7401 179.803 28.6376 179.803H34.1731V179.746ZM12.3135 179.746C16.098 180.029 19.0917 183.248 19.0917 187.203V192.795L15.6461 186.751L15.4767 186.468H15.1378H12.257V179.746H12.3135ZM45.357 180.198C48.3507 180.198 50.6101 182.006 51.4574 185L53.4344 192.174L50.3277 190.422L49.9888 190.197L49.7064 190.479L39.2567 200.59V193.925L44.2838 192.625C45.4135 192.343 46.3738 191.609 46.9386 190.705C47.5035 189.801 47.6164 188.728 47.334 187.768C47.0516 186.751 46.3738 185.903 45.4135 185.339C44.7922 185 44.1144 184.83 43.3801 184.83C42.7023 184.83 42.0244 185 41.4031 185.339L39.7651 186.242L41.6291 186.412C42.7587 186.525 43.6625 187.429 43.6625 188.502C43.6625 189.688 42.6458 190.592 41.4596 190.592C40.2734 190.592 39.2567 189.632 39.2567 188.502V186.129C39.2002 182.853 41.968 180.198 45.357 180.198ZM54.6205 180.311L60.6079 183.644L59.2523 188.445C58.9698 189.575 59.0828 190.705 59.6477 191.665C60.382 192.851 61.7376 193.642 63.1497 193.642C63.8275 193.642 64.5618 193.473 65.1832 193.134C66.4258 192.456 67.2166 191.157 67.2166 189.745V187.937L66.1999 189.406C65.8045 189.971 65.1267 190.309 64.3924 190.309C63.997 190.309 63.6016 190.196 63.2627 190.027C62.7543 189.745 62.3589 189.293 62.246 188.728C62.0765 188.219 62.1895 187.655 62.4719 187.146C62.8673 186.468 63.6016 186.073 64.3924 186.073C64.7878 186.073 65.1832 186.186 65.5221 186.355L67.6685 187.542C69.1371 188.332 70.1538 189.632 70.5492 191.213C70.9446 192.738 70.7187 194.32 69.9279 195.676C68.7982 197.596 66.9342 198.613 64.6748 198.613C63.997 198.613 63.2627 198.5 62.5849 198.331L55.1854 196.41L58.2355 194.716L58.6309 194.49L58.518 194.038L54.6205 180.311ZM4.40567 181.271L7.85123 187.316L8.02068 187.598H8.35959H11.2403V194.32C7.45584 194.038 4.46215 190.818 4.46215 186.864V181.271H4.40567ZM35.6417 187.768C35.3593 191.609 32.1961 194.659 28.2987 194.659H22.7632L28.7505 191.157L29.033 190.987V190.648V187.711H35.6417V187.768ZM50.4407 195.732V199.178V199.63L50.8361 199.743L65.0702 203.415L59.0828 206.748L55.4113 203.189C54.564 202.398 53.4908 201.946 52.3611 201.946C50.1018 201.946 48.2942 203.697 48.2942 205.9C48.2942 207.312 49.085 208.612 50.2712 209.289L51.8528 210.193L51.062 208.555C50.5536 207.538 50.949 206.409 51.9657 205.844C52.3047 205.674 52.7 205.561 53.0954 205.561C53.8862 205.561 54.6205 205.957 55.0159 206.635C55.2983 207.143 55.3548 207.651 55.2419 208.216C55.0724 208.781 54.7335 209.233 54.2251 209.515L52.0787 210.702C51.1185 211.21 50.0453 211.493 48.9721 211.493C46.7692 211.493 44.7357 210.363 43.606 208.499C42.1374 206.013 42.5893 203.245 44.9052 201.042L50.4407 195.732ZM17.6231 196.467L11.6357 199.969L11.3533 200.138V200.477V203.415H4.74457C5.027 199.574 8.19013 196.523 12.0876 196.523H17.6231V196.467ZM29.1459 196.806C32.9304 197.088 35.9241 200.308 35.9241 204.262V209.854L32.4785 203.81L32.3091 203.528H31.9702H29.0895V196.806H29.1459ZM21.2381 198.331L24.6837 204.375L24.8531 204.657H25.192H28.0727V211.38C24.2883 211.097 21.2946 207.877 21.2946 203.923V198.331H21.2381ZM19.0917 204.488C18.8093 208.329 15.6461 211.38 11.7487 211.38H6.21317L12.2006 207.877L12.483 207.708V207.369V204.488H19.0917ZM48.4072 73.4355C41.1772 73.4355 37.9576 79.4233 38.6919 84.7897C39.6521 82.6996 41.7985 81.2874 44.2838 81.2874H48.5202C50.6666 81.2309 52.4741 79.4798 52.4741 77.3897C52.4741 75.1867 50.6101 73.4355 48.4072 73.4355ZM12.0311 73.4355C7.51232 73.4355 3.84082 76.9378 3.84082 81.2309C3.84082 85.524 7.51232 89.0263 12.0311 89.0263H19.3741L14.347 84.2248H12.0876C10.3366 84.2248 8.98092 82.8691 8.98092 81.2309C8.98092 79.5928 10.393 78.237 12.0876 78.237C13.1608 78.237 14.121 78.7454 14.6859 79.5927L15.6461 81.1744L19.3176 77.6157L19.0352 77.1638C17.5666 74.9607 14.9683 73.4355 12.0311 73.4355ZM61.3987 73.6615C60.8903 73.6615 60.3255 73.718 59.8171 73.7745C61.907 74.7348 63.3756 76.8813 63.3756 79.3103V83.4904C63.4321 85.637 65.1832 87.3881 67.3296 87.3881C69.5325 87.3881 71.2835 85.524 71.2835 83.3775C71.2835 76.9378 66.3693 73.6615 61.3987 73.6615ZM36.5454 74.2264L31.5183 79.0279V81.1744C31.5183 82.8126 30.1062 84.1683 28.4116 84.1683C26.7171 84.1683 25.305 82.8126 25.305 81.1744C25.305 80.1576 25.8698 79.1973 26.7171 78.6889L28.3552 77.7851L24.6837 74.2264L24.2318 74.5088C21.8594 75.8645 20.3343 78.35 20.3343 81.1744C20.3343 85.4675 24.0058 88.9698 28.5246 88.9698C33.0434 88.9698 36.7149 85.4675 36.7149 81.1744V74.2264H36.5454ZM57.7272 75.0737C55.5808 75.0737 53.8297 76.8813 53.7733 78.9714V88.6308C57.9531 87.8965 61.6811 84.6767 61.6811 79.0844C61.6811 76.9378 59.9301 75.0737 57.7272 75.0737ZM44.0579 82.9255C41.855 82.9255 39.991 84.6767 39.991 86.8232C39.991 88.9698 41.7985 90.6644 43.9449 90.7209H53.6603C52.926 86.5973 49.7628 82.9255 44.0579 82.9255ZM56.2021 88.9133C56.9364 93.0934 60.156 96.7651 65.8045 96.7651C68.0074 96.7651 69.8714 95.014 69.8714 92.8675C69.8714 90.7209 68.0639 89.0263 65.9175 88.9698L56.2021 88.9133ZM12.0311 90.6644C7.51232 90.6644 3.84082 94.1667 3.84082 98.4598V105.464L8.86795 100.663V98.5163C8.86795 96.8781 10.2801 95.5224 11.9746 95.5224C13.7256 95.5224 15.0813 96.8781 15.0813 98.5163C15.0813 99.5331 14.5164 100.493 13.6691 101.002L12.0311 101.906L15.7026 105.464L16.1545 105.182C18.5268 103.826 20.0519 101.341 20.0519 98.5163C20.1649 94.1102 16.5499 90.6644 12.0311 90.6644ZM28.3552 90.6644H21.0122L26.0393 95.4659H28.2987C29.9932 95.4659 31.4053 96.8216 31.4053 98.4598C31.4053 100.098 29.9932 101.454 28.2987 101.454C27.2255 101.454 26.2652 100.945 25.7004 100.098L24.7401 98.5163L21.0686 102.075L21.3511 102.527C22.7632 104.786 25.3615 106.255 28.3552 106.255C32.8739 106.255 36.5454 102.753 36.5454 98.4598C36.5454 94.1102 32.8739 90.6644 28.3552 90.6644ZM56.0891 91.0598C51.9093 91.7942 48.1813 95.014 48.1813 100.606C48.1813 102.753 49.9323 104.617 52.1352 104.617C54.2816 104.617 56.0326 102.809 56.0891 100.719V91.0598ZM42.5893 92.2461C40.3864 92.2461 38.6354 94.1102 38.6354 96.2567C38.6354 102.753 43.5495 105.973 48.5202 105.973C49.0285 105.973 49.5934 105.916 50.1018 105.86C48.0118 104.899 46.5432 102.753 46.5432 100.324V96.1438C46.4867 94.0537 44.7357 92.2461 42.5893 92.2461ZM71.1705 94.901C70.2103 96.9911 68.0639 98.4033 65.5786 98.4033H61.3422C59.1958 98.4598 57.3883 100.211 57.3883 102.301C57.3883 104.448 59.2523 106.199 61.4552 106.199C68.7417 106.255 71.9613 100.267 71.1705 94.901ZM36.489 108.854C27.5079 108.854 20.1649 116.197 20.1649 125.235H29.033C29.033 121.112 32.3656 117.779 36.489 117.779V108.854ZM20.1649 108.854L9.20686 119.869V108.854H3.84082V125.235H11.2968L20.1649 116.31V108.854ZM48.4072 108.854C45.8654 108.854 43.3801 110.04 41.5726 111.847C38.7483 114.728 37.5057 119.134 39.878 123.145L41.855 121.168C40.7253 118.683 41.2901 115.915 43.4366 113.712C44.9052 112.243 46.5997 111.509 48.2942 111.509C49.9323 111.509 51.6268 112.186 53.039 113.655L56.9364 117.553C56.1456 119.134 56.428 121.112 57.7272 122.411C58.518 123.258 59.5912 123.653 60.6644 123.653C61.7376 123.653 62.8108 123.258 63.6016 122.411C65.2396 120.773 65.2396 118.118 63.6016 116.479C62.8108 115.632 61.7376 115.237 60.6644 115.237C60.043 115.237 59.3652 115.406 58.8004 115.689L54.9029 111.791C52.926 109.701 50.6101 108.854 48.4072 108.854ZM60.7209 120.999C60.3255 120.999 59.9301 120.829 59.6477 120.547C59.0263 119.925 59.0263 118.965 59.6477 118.344C59.9301 118.061 60.3255 117.892 60.7209 117.892C61.1163 117.892 61.5117 118.061 61.7941 118.344C62.4154 118.965 62.4154 119.925 61.7941 120.547C61.5117 120.829 61.1163 120.999 60.7209 120.999ZM61.5117 108.854C60.043 108.854 58.518 109.249 57.0494 110.096L59.0263 112.073C59.8736 111.678 60.7209 111.509 61.5681 111.509C63.2627 111.509 64.9572 112.243 66.4258 113.712C69.2501 116.592 69.363 120.434 66.4823 123.371L62.5849 127.269C62.02 126.986 61.3422 126.817 60.7209 126.817C59.6477 126.817 58.5745 127.212 57.7837 128.06C56.1456 129.698 56.1456 132.353 57.7837 133.991C58.5745 134.838 59.6477 135.234 60.7209 135.234C61.7941 135.234 62.8673 134.838 63.6581 133.991C64.9572 132.692 65.2396 130.715 64.4489 129.133L68.3463 125.235C72.8086 120.773 71.6224 115.18 68.2898 111.791C66.5388 110.04 64.0535 108.854 61.5117 108.854ZM60.7209 132.579C60.3255 132.579 59.9301 132.409 59.6477 132.127C59.0263 131.505 59.0263 130.545 59.6477 129.924C59.9301 129.641 60.3255 129.472 60.7209 129.472C61.1163 129.472 61.5117 129.641 61.7941 129.924C62.4154 130.545 62.4154 131.505 61.7941 132.127C61.5117 132.466 61.1163 132.579 60.7209 132.579ZM49.198 115.237C48.1248 115.237 47.0516 115.632 46.2608 116.479C44.9616 117.779 44.6792 119.756 45.47 121.337L41.5726 125.235C37.1103 129.698 38.2965 135.29 41.6291 138.679C43.4366 140.487 45.8654 141.673 48.4637 141.673C49.9323 141.673 51.4574 141.278 52.926 140.43L50.949 138.453C50.1018 138.849 49.2545 139.018 48.4072 139.018C46.7127 139.018 45.0181 138.284 43.5495 136.815C40.7253 133.934 40.6123 130.093 43.493 127.156L47.3905 123.258C47.9553 123.541 48.6332 123.71 49.2545 123.71C50.3277 123.71 51.4009 123.315 52.1917 122.467C53.8297 120.829 53.8297 118.174 52.1917 116.536C51.3444 115.689 50.2712 115.237 49.198 115.237ZM49.198 120.999C48.8026 120.999 48.4072 120.829 48.1248 120.547C47.5035 119.925 47.5035 118.965 48.1248 118.344C48.4072 118.061 48.8026 117.892 49.198 117.892C49.5934 117.892 49.9888 118.061 50.2712 118.344C50.8925 118.965 50.8925 119.925 50.2712 120.547C49.9888 120.829 49.5934 120.999 49.198 120.999ZM36.5454 125.235H29.0895L20.2214 134.16V141.617L31.1794 130.602V141.617H36.5454V125.235ZM20.1649 125.235H11.2968C11.2968 129.359 7.9642 132.692 3.84082 132.692V144.215V141.617C12.8784 141.673 20.1649 134.33 20.1649 125.235ZM49.198 126.873C48.1248 126.873 47.0516 127.269 46.2608 128.116C44.6227 129.754 44.6227 132.409 46.2608 134.047C47.0516 134.895 48.1248 135.29 49.198 135.29C49.8193 135.29 50.4971 135.121 51.062 134.838L54.9594 138.736C56.9929 140.769 59.3088 141.673 61.5117 141.673C64.0535 141.673 66.5388 140.487 68.3463 138.679C71.1705 135.798 72.4132 131.392 70.0408 127.382L68.0639 129.359C69.1936 131.844 68.6287 134.612 66.4823 136.815C65.0137 138.284 63.3192 139.018 61.6246 139.018C59.9866 139.018 58.292 138.34 56.8799 136.872L52.9825 132.974C53.7733 131.392 53.4908 129.415 52.1917 128.116C51.3444 127.269 50.2712 126.873 49.198 126.873ZM49.198 132.579C48.8026 132.579 48.4072 132.409 48.1248 132.127C47.5035 131.505 47.5035 130.545 48.1248 129.924C48.4072 129.641 48.8026 129.472 49.198 129.472C49.5934 129.472 49.9888 129.641 50.2712 129.924C50.8925 130.545 50.8925 131.505 50.2712 132.127C49.9888 132.466 49.5934 132.579 49.198 132.579ZM63.4321 144.272C59.0828 144.272 55.5808 147.774 55.5808 152.123H62.5284C65.4656 151.502 67.8944 149.356 68.9676 146.588C67.5555 145.175 65.635 144.272 63.4321 144.272ZM46.4302 144.272C44.2838 144.272 42.3069 145.175 40.8947 146.588C41.968 149.356 44.3403 151.502 47.334 152.123H54.2816C54.2816 147.774 50.7796 144.272 46.4302 144.272ZM34.286 144.272H24.7966C20.3908 144.272 18.9222 149.92 23.4975 152.575C24.8531 150.203 27.169 148.734 29.6543 148.282C26.6606 149.695 24.5707 152.745 24.5707 156.247C20.6168 156.247 17.2842 153.366 16.7193 149.356C16.4369 146.701 14.6859 144.611 12.1441 144.611C11.7487 144.611 11.3533 144.667 10.9014 144.78C12.2005 146.87 12.7654 149.356 12.5395 151.785C11.5792 148.508 8.58553 146.305 5.25294 146.305C4.80106 146.305 4.2927 146.362 3.84082 146.418V155.908C3.84082 158.45 5.70481 160.032 7.79475 160.032C9.31983 160.032 11.0144 159.185 12.1441 157.207C9.77171 155.852 8.30311 153.536 7.90771 151.05C9.31983 154.044 12.3135 156.134 15.8721 156.134C15.8721 160.088 12.9913 163.478 8.98092 164.042C5.93075 164.381 3.67137 166.697 4.46215 169.861C6.26966 168.787 8.30311 168.166 10.393 168.166C10.7319 168.166 11.0709 168.166 11.4662 168.223C7.73826 169.352 5.42239 173.137 6.15669 176.922H15.6461C20.0519 176.922 21.5205 171.273 16.9453 168.618C15.5896 170.991 13.2738 172.459 10.7884 172.911C13.7821 171.499 15.8721 168.449 15.8721 164.946C19.826 164.946 23.1586 167.827 23.7234 171.838C24.0058 174.493 25.7569 176.583 28.2987 176.583C28.6941 176.583 29.0895 176.526 29.5413 176.413C28.2422 174.323 27.6773 171.838 27.9033 169.409C28.8635 172.685 31.8572 174.888 35.1898 174.888C35.6417 174.888 36.15 174.832 36.6019 174.775V165.285C36.6019 162.743 34.7379 161.162 32.648 161.162C31.1229 161.162 29.4284 162.009 28.2987 163.986C30.671 165.342 32.1396 167.658 32.535 170.143C31.1229 167.149 28.1292 165.059 24.5707 165.059C24.5707 161.105 27.4514 157.716 31.4618 157.151C34.512 156.812 36.7714 154.496 35.9806 151.333C34.1731 152.406 32.1396 153.027 30.0497 153.027C29.7108 153.027 29.3719 153.027 28.9765 152.971C32.761 151.898 35.0203 148.113 34.286 144.272ZM71.2835 152.123H62.5849C58.8569 152.914 55.9762 156.078 55.6372 159.975H63.4886C67.7814 159.975 71.2835 156.473 71.2835 152.123ZM47.334 152.123H38.6354C38.6354 156.473 42.1374 159.975 46.4867 159.975H54.3381C53.8862 156.134 51.062 152.971 47.334 152.123ZM63.4321 161.331H55.5808C55.9762 165.229 58.8004 168.392 62.5284 169.183H71.227C71.2835 164.89 67.7815 161.331 63.4321 161.331ZM54.2816 161.331H46.4302C42.0809 161.331 38.5789 164.833 38.5789 169.183H47.2775C51.062 168.392 53.8862 165.229 54.2816 161.331ZM62.5849 169.239H55.6372C55.6372 173.589 59.1393 177.091 63.4886 177.091C65.635 177.091 67.612 176.187 69.0241 174.775C67.9509 172.007 65.5221 169.861 62.5849 169.239ZM54.2816 169.239H47.334C44.3968 169.861 41.968 172.007 40.8947 174.775C42.3069 176.187 44.2838 177.091 46.4302 177.091C50.7796 177.091 54.2816 173.533 54.2816 169.239ZM53.7168 179.181L57.8966 194.264L53.6038 196.636L62.3589 198.896C63.0932 199.065 63.884 199.178 64.6183 199.178C66.9342 199.178 69.0806 198.161 70.3797 195.958C72.2437 192.851 71.114 188.897 67.8944 187.09L65.748 185.903C65.2961 185.677 64.8442 185.564 64.3359 185.564C63.3756 185.564 62.4154 186.073 61.9071 186.92C61.1163 188.219 61.5681 189.858 62.9238 190.592C63.3756 190.818 63.8275 190.931 64.3359 190.931C65.2396 190.931 66.0869 190.535 66.5953 189.801C66.5953 190.931 65.9739 192.061 64.8442 192.682C64.2794 192.964 63.7146 193.134 63.0932 193.134C61.907 193.134 60.7209 192.513 60.0995 191.439C59.5912 190.592 59.4782 189.575 59.7606 188.671L61.2292 183.418L53.7168 179.181ZM36.2065 179.181H28.5811C24.2318 179.181 20.6733 182.797 20.6733 187.203H28.4681V183.7L36.2065 179.181ZM11.7487 179.181V187.033H8.3031L3.84082 179.181V186.92C3.84082 191.326 7.39935 194.941 11.7487 194.941V187.09H15.1942L19.6565 194.941V187.203C19.713 182.74 16.1545 179.181 11.7487 179.181ZM45.357 179.633C41.6291 179.633 38.6354 182.571 38.6354 186.129V188.502C38.6354 189.971 39.878 191.157 41.4031 191.157C42.9282 191.157 44.1709 189.971 44.1709 188.502C44.1709 187.09 43.0412 185.96 41.6291 185.847C42.1374 185.564 42.7587 185.395 43.3236 185.395C43.8884 185.395 44.5098 185.564 45.0746 185.847C46.7127 186.751 47.334 188.841 46.3738 190.422C45.8654 191.27 45.0181 191.835 44.0579 192.117L38.6354 193.529V201.946L50.0453 190.931L54.3381 193.303L51.9657 184.83C51.1185 181.78 48.8026 179.633 45.357 179.633ZM36.2065 187.203H28.4116V190.705L20.6168 195.224H28.2422C32.7045 195.224 36.2065 191.609 36.2065 187.203ZM51.0055 194.377L44.5663 200.59C42.2504 202.85 41.4596 205.844 43.2106 208.725C44.4533 210.815 46.7127 212.001 49.0285 212.001C50.1582 212.001 51.3444 211.718 52.4176 211.154L54.564 209.967C55.9197 209.233 56.3715 207.595 55.5808 206.296C55.0724 205.448 54.1122 204.94 53.1519 204.94C52.7001 204.94 52.1917 205.053 51.7398 205.279C50.4972 205.957 49.9888 207.482 50.6101 208.725C49.5934 208.16 48.9156 207.086 48.9156 205.844C48.9156 203.98 50.4971 202.454 52.4176 202.454C53.4343 202.454 54.3946 202.906 55.0724 203.584L59.0263 207.425L66.5953 203.189L51.0055 199.178V194.377ZM19.713 195.902H12.0876C7.73826 195.902 4.17973 199.517 4.17973 203.923H11.9746V200.421L19.713 195.902ZM20.6733 196.241V203.923C20.6733 208.329 24.2318 211.944 28.5811 211.944V204.093H32.0267L36.489 211.944V204.206C36.489 199.799 32.9304 196.184 28.5811 196.184V204.036H25.1355L20.6733 196.241ZM19.713 203.923H11.9181V207.425L4.12324 211.944H11.7487C16.1545 211.944 19.713 208.386 19.713 203.923Z" fill="#020203"/>
<path d="M54.1123 22.0876C54.1123 28.7532 58.5746 33.0463 64.449 33.0463C67.0473 33.0463 69.4196 32.199 71.1707 30.7303V13.4449C69.3632 11.9762 67.0473 11.1289 64.449 11.1289C58.5181 11.1289 54.1123 15.3655 54.1123 22.0876Z" fill="#020203"/>
<path d="M64.4492 40.0501C53.7171 40.0501 45.8658 32.5937 45.8658 22.0869C45.8658 11.5801 53.7171 4.18012 64.4492 4.18012C66.8781 4.18012 69.1375 4.51905 71.1709 5.2534V0H48.9724V8.0778L29.8806 30.786C44.7361 32.7066 52.2485 41.5753 52.2485 53.3813C52.2485 60.2163 49.5938 66.5995 44.0583 71.175H71.1709V38.9768C69.1375 39.6547 66.8781 40.0501 64.4492 40.0501Z" fill="#020203"/>
<path d="M31.123 10.5625H0V59.3118C5.5355 63.0965 13.048 65.4125 20.8428 65.4125C31.2925 65.4125 37.5058 60.7804 37.5058 53.4935C37.5058 46.4325 32.3092 41.8004 20.391 41.8004H13.2174V31.802L31.123 10.5625Z" fill="#020203"/>
<path d="M136.015 52.5917C136.241 52.5917 136.41 52.6482 136.636 52.7612C136.806 52.8742 136.919 52.9871 136.919 53.0436C136.184 58.6924 135.846 63.8329 135.846 68.5214C135.846 69.0863 135.733 69.5382 135.507 69.7641C135.281 70.0466 134.829 70.1595 134.207 70.1595H86.0826C85.8566 70.1595 85.7437 69.9336 85.7437 69.4817C85.7437 69.0298 85.8566 68.8038 86.0826 68.8038C88.3984 68.8038 90.093 68.6344 91.1662 68.2389C92.2394 67.9 92.9172 67.1657 93.3126 66.0924C93.6515 65.0191 93.8775 63.4374 93.8775 61.2344V10.847C93.8775 8.64396 93.708 7.06229 93.3126 6.04551C92.9737 5.02872 92.2394 4.35086 91.1097 3.89896C90.0365 3.50354 88.3419 3.27759 86.0826 3.27759C85.8566 3.27759 85.7437 3.05164 85.7437 2.59973C85.7437 2.14783 85.8566 1.92188 86.0826 1.92188H132.174C132.908 1.92188 133.247 2.2608 133.247 2.88217L133.473 17.3431C133.473 17.5126 133.247 17.6256 132.852 17.6821C132.456 17.7386 132.231 17.6821 132.174 17.4561C130.988 13.276 129.067 10.1127 126.3 8.07908C123.532 6.04551 119.917 5.02872 115.398 5.02872H112.122C109.919 5.02872 108.338 5.48063 107.321 6.44093C106.304 7.40122 105.796 8.81343 105.796 10.7905V32.9903H114.833C119.013 32.9903 122.289 32.256 124.492 30.7873C126.752 29.3186 127.881 27.285 127.881 24.6866C127.881 24.4606 128.107 24.3477 128.503 24.3477C128.898 24.3477 129.124 24.4606 129.124 24.6866L129.011 34.459L129.124 39.6559C129.293 42.1414 129.35 44.062 129.35 45.5307C129.35 45.7002 129.124 45.7567 128.672 45.7567C128.22 45.7567 127.994 45.7002 127.994 45.5307C127.994 42.5368 126.864 40.2208 124.549 38.5262C122.289 36.8315 118.957 35.9842 114.72 35.9842H105.796V60.5565C105.796 62.6466 106.191 64.2283 106.982 65.2451C107.773 66.2618 109.072 66.7702 110.766 66.7702H114.381C120.03 66.7702 124.549 65.584 127.994 63.268C131.383 60.952 133.925 57.3367 135.507 52.4787C135.563 52.6482 135.733 52.5917 136.015 52.5917Z" fill="#020203"/>
<path d="M157.14 20.0538C158.496 22.0873 160.134 23.8385 162.111 25.3637C164.088 26.8888 166.743 28.7529 170.075 30.8995C173.69 33.2155 176.628 35.2491 178.774 37.0002C180.977 38.7513 182.784 40.8414 184.31 43.3834C185.835 45.8688 186.569 48.7497 186.569 52.0261C186.569 55.8108 185.552 59.1435 183.519 62.0809C181.485 65.0183 178.661 67.2778 175.103 68.916C171.488 70.5542 167.477 71.345 163.071 71.345C159.795 71.345 156.406 70.8931 152.848 69.9893C149.289 69.0855 146.917 68.0687 145.674 66.9954C145.335 66.713 145.053 66.4305 144.883 66.2046C144.714 65.9786 144.601 65.5267 144.601 64.9618L144.262 47.6765V47.5635C144.262 47.281 144.431 47.1116 144.827 47.0551C145.166 46.9986 145.392 47.1681 145.505 47.4505C147.708 51.8566 149.572 55.4718 151.21 58.2397C152.848 61.0077 154.881 63.4366 157.423 65.5267C159.908 67.6168 162.789 68.69 165.952 68.69C168.833 68.69 171.262 67.8992 173.126 66.374C174.99 64.7924 175.95 62.1374 175.95 58.3527C175.95 55.1329 175.216 52.365 173.803 49.9925C172.391 47.62 170.64 45.5864 168.607 43.8918C166.573 42.1971 163.806 40.22 160.247 37.904C156.745 35.6445 154.034 33.7239 152.113 32.1422C150.193 30.5606 148.555 28.64 147.143 26.3804C145.787 24.1209 145.053 21.466 145.053 18.4156C145.053 14.5744 146.182 11.2981 148.385 8.69966C150.588 6.04472 153.469 4.06763 156.915 2.82489C160.417 1.58216 164.032 0.904297 167.929 0.904297C170.471 0.904297 173.069 1.13025 175.667 1.63864C178.266 2.09055 180.356 2.65543 181.994 3.33329C182.672 3.61573 183.067 3.95466 183.293 4.2371C183.519 4.57603 183.632 4.97144 183.632 5.47983V21.466C183.632 21.6919 183.462 21.8614 183.067 21.9744C182.728 22.0873 182.502 22.0309 182.389 21.8049L181.542 19.7148C179.734 15.1393 177.588 11.2416 175.159 8.07829C172.73 4.85847 169.341 3.2768 164.992 3.2768C162.111 3.2768 159.739 4.12412 157.875 5.76227C156.011 7.45692 155.107 9.88591 155.107 13.0492C155.164 15.7042 155.841 18.0202 157.14 20.0538Z" fill="#020203"/>
<path d="M214.02 70.2153C212.834 70.1588 211.422 70.0458 209.728 69.9893C208.033 69.9328 206.113 69.8763 204.023 69.8763L195.945 69.9893C194.477 70.0458 192.556 70.1023 190.071 70.1023C189.901 70.1023 189.845 69.8763 189.845 69.4244C189.845 68.9725 189.901 68.7466 190.071 68.7466C192.387 68.7466 194.081 68.5771 195.211 68.1817C196.284 67.8428 197.019 67.1084 197.414 66.0351C197.809 64.9619 198.035 63.3802 198.035 61.1772V10.7898C198.035 8.58671 197.809 7.00504 197.414 5.98826C197.019 4.97147 196.284 4.29361 195.211 3.84171C194.138 3.44629 192.5 3.22034 190.24 3.22034C190.014 3.22034 189.901 2.99439 189.901 2.54248C189.901 2.09058 190.014 1.86463 190.24 1.86463L196.002 1.9776C199.334 2.14706 201.989 2.20355 203.966 2.20355C206.96 2.20355 210.01 2.09058 213.117 1.86463C216.901 1.69516 219.443 1.63867 220.742 1.63867C228.085 1.63867 234.581 3.10736 240.286 5.98826C245.991 8.86915 250.397 12.8233 253.503 17.8508C256.61 22.8782 258.191 28.4705 258.191 34.7407C258.191 41.8017 256.553 48.0154 253.334 53.3818C250.114 58.8047 245.765 62.9848 240.286 65.9222C234.807 68.8595 228.819 70.3282 222.267 70.3282C219.951 70.5542 217.24 70.4412 214.02 70.2153ZM233.508 64.51C237.066 62.1375 239.834 58.6352 241.811 54.0032C243.788 49.3711 244.805 43.8353 244.805 37.3392C244.805 31.182 243.844 25.5896 241.98 20.5057C240.116 15.4783 237.405 11.4676 233.903 8.58671C230.401 5.70581 226.391 4.23712 221.815 4.23712C217.297 4.23712 214.246 4.68903 212.552 5.53635C210.857 6.38368 210.066 8.24779 210.066 11.0722V60.0474C210.066 62.9283 210.801 65.0183 212.326 66.2046C213.851 67.3908 216.788 68.0122 221.137 68.0122C225.826 68.0122 229.949 66.8825 233.508 64.51Z" fill="#020203"/>
<path d="M331 69.4251C331 69.8771 330.831 70.103 330.435 70.103C328.967 70.103 326.764 70.0465 323.714 69.8771C320.494 69.7076 318.235 69.6511 316.879 69.6511C315.071 69.6511 312.868 69.7076 310.214 69.8771C307.728 70.0465 305.808 70.103 304.339 70.103C304.057 70.103 303.887 69.8771 303.887 69.4251C303.887 68.9732 304.057 68.7473 304.339 68.7473C306.203 68.7473 307.559 68.5213 308.406 68.1259C309.253 67.7305 309.649 66.9962 309.649 65.9794C309.649 64.7366 308.915 62.7031 307.446 59.7657L296.149 37.4529H276.775L269.036 54.5123C268.076 56.6023 267.624 58.5794 267.624 60.387C267.624 62.9855 268.528 65.0191 270.392 66.4878C272.256 67.9565 274.741 68.6908 277.848 68.6908C278.187 68.6908 278.413 68.9168 278.413 69.3687C278.413 69.8206 278.243 70.0465 277.848 70.0465C276.549 70.0465 274.628 69.99 272.2 69.8206C269.432 69.6511 267.059 69.5946 265.026 69.5946C263.049 69.5946 260.733 69.6511 257.965 69.8206C255.48 69.99 253.503 70.0465 251.978 70.0465C251.696 70.0465 251.526 69.8206 251.526 69.3687C251.526 68.9168 251.696 68.6908 251.978 68.6908C254.011 68.6908 255.706 68.2954 257.118 67.4481C258.474 66.6007 259.886 65.1321 261.241 62.9855C262.597 60.839 264.235 57.6756 266.156 53.439L289.766 1.52643C289.936 1.30048 290.218 1.1875 290.726 1.1875C291.291 1.1875 291.63 1.30048 291.687 1.52643L318.912 55.0772C321.454 60.2176 323.544 63.7763 325.239 65.7534C326.933 67.7305 328.628 68.6908 330.435 68.6908C330.831 68.8038 331 69.0297 331 69.4251ZM278.243 34.5155H294.68L285.982 17.3431L278.243 34.5155Z" fill="#020203"/>
<path d="M105.062 106.085V108.457H93.6519V93.2617H104.723V95.6342H96.4196V99.5884H103.763V101.904H96.4196V106.085H105.062Z" fill="#020203"/>
<path d="M124.379 93.2617V108.457H122.007L113.647 98.1762V108.457H110.823V93.2617H113.139L121.499 103.543V93.2617H124.379Z" fill="#020203"/>
<path d="M129.971 100.887C129.971 96.3681 133.473 93.0918 138.105 93.0918C140.591 93.0918 142.737 93.9956 144.149 95.6338L142.342 97.3284C141.212 96.1422 139.856 95.5208 138.275 95.5208C135.112 95.5208 132.852 97.7238 132.852 100.887C132.852 104.051 135.112 106.254 138.275 106.254C139.856 106.254 141.212 105.689 142.342 104.446L144.149 106.197C142.737 107.835 140.591 108.739 138.105 108.739C133.417 108.683 129.971 105.406 129.971 100.887Z" fill="#020203"/>
<path d="M148.046 100.887C148.046 96.3681 151.548 93.0918 156.237 93.0918C160.925 93.0918 164.427 96.3681 164.427 100.887C164.427 105.406 160.925 108.683 156.237 108.683C151.548 108.683 148.046 105.35 148.046 100.887ZM161.546 100.887C161.546 97.7803 159.287 95.5208 156.18 95.5208C153.13 95.5208 150.814 97.7803 150.814 100.887C150.814 103.994 153.074 106.254 156.18 106.254C159.287 106.197 161.546 103.938 161.546 100.887Z" fill="#020203"/>
<path d="M183.519 93.2617V108.457H181.203L172.843 98.1762V108.457H170.019V93.2617H172.335L180.695 103.543V93.2617H183.519Z" fill="#020203"/>
<path d="M193.291 95.6342H188.264V93.2617H201.142V95.6342H196.115V108.457H193.291V95.6342Z" fill="#020203"/>
<path d="M215.828 108.457L212.722 103.994C212.552 103.994 212.326 103.994 212.157 103.994H208.711V108.4H205.887V93.2051H212.157C216.167 93.2051 218.652 95.2387 218.652 98.6279C218.652 100.944 217.466 102.639 215.433 103.429L218.935 108.4H215.828V108.457ZM212.044 95.6341H208.768V101.678H212.044C214.529 101.678 215.828 100.549 215.828 98.6279C215.828 96.7073 214.529 95.6341 212.044 95.6341Z" fill="#020203"/>
<path d="M223.284 100.887C223.284 96.3681 226.786 93.0918 231.474 93.0918C236.163 93.0918 239.665 96.3681 239.665 100.887C239.665 105.406 236.163 108.683 231.474 108.683C226.786 108.683 223.284 105.35 223.284 100.887ZM236.84 100.887C236.84 97.7803 234.581 95.5208 231.474 95.5208C228.424 95.5208 226.108 97.7803 226.108 100.887C226.108 103.994 228.368 106.254 231.474 106.254C234.525 106.197 236.84 103.938 236.84 100.887Z" fill="#020203"/>
<path d="M252.599 106.875L253.56 104.672C254.802 105.632 256.723 106.367 258.587 106.367C260.959 106.367 261.976 105.519 261.976 104.389C261.976 101.113 252.938 103.26 252.938 97.6108C252.938 95.1819 254.915 93.0918 259.039 93.0918C260.846 93.0918 262.767 93.5437 264.122 94.4475L263.218 96.5941C261.863 95.8032 260.338 95.4078 259.039 95.4078C256.666 95.4078 255.762 96.3116 255.762 97.4979C255.762 100.718 264.8 98.6276 264.8 104.22C264.8 106.649 262.823 108.739 258.643 108.739C256.214 108.683 253.842 107.948 252.599 106.875Z" fill="#020203"/>
<path d="M269.997 101.848V93.2617H272.821V101.735C272.821 104.842 274.233 106.197 276.662 106.197C279.091 106.197 280.503 104.842 280.503 101.735V93.2617H283.271V101.848C283.271 106.254 280.785 108.683 276.606 108.683C272.539 108.683 269.997 106.254 269.997 101.848Z" fill="#020203"/>
<path d="M289.879 93.2617H292.704V106.085H300.668V108.457H289.879V93.2617Z" fill="#020203"/>
<path d="M107.66 136.361V126.307L102.689 134.667H101.447L96.4759 126.476V136.418H93.7646V121.223H96.0805L102.124 131.278L108.055 121.223H110.371V136.418H107.66V136.361Z" fill="#020203"/>
<path d="M126.921 132.859H119.296L117.771 136.361H114.833L121.668 121.166H124.436L131.327 136.361H128.39L126.921 132.859ZM125.961 130.6L123.08 123.934L120.256 130.6H125.961Z" fill="#020203"/>
<path d="M138.218 123.539H133.191V121.166H146.069V123.539H141.042V136.361H138.218V123.539Z" fill="#020203"/>
<path d="M149.515 128.735C149.515 124.216 153.017 120.939 157.705 120.939C162.394 120.939 165.896 124.216 165.896 128.735C165.896 133.254 162.394 136.53 157.705 136.53C153.017 136.53 149.515 133.254 149.515 128.735ZM163.071 128.735C163.071 125.628 160.812 123.368 157.705 123.368C154.655 123.368 152.339 125.628 152.339 128.735C152.339 131.842 154.599 134.101 157.705 134.101C160.756 134.101 163.071 131.842 163.071 128.735Z" fill="#020203"/>
<path d="M181.881 128.565H184.535V134.61C182.954 135.909 180.751 136.53 178.605 136.53C173.916 136.53 170.414 133.254 170.414 128.735C170.414 124.216 173.916 120.939 178.661 120.939C181.203 120.939 183.349 121.787 184.761 123.425L182.954 125.176C181.768 123.99 180.412 123.425 178.774 123.425C175.554 123.425 173.239 125.628 173.239 128.791C173.239 131.898 175.498 134.158 178.718 134.158C179.791 134.158 180.864 133.932 181.824 133.367V128.565H181.881Z" fill="#020203"/>
<path d="M200.86 136.361L197.753 131.899C197.584 131.899 197.358 131.899 197.188 131.899H193.743V136.305H190.918V121.109H197.132C201.142 121.109 203.628 123.143 203.628 126.532C203.628 128.848 202.441 130.543 200.408 131.334L203.91 136.305H200.86V136.361ZM197.019 123.538H193.743V129.583H197.019C199.504 129.583 200.803 128.453 200.803 126.532C200.803 124.612 199.504 123.538 197.019 123.538Z" fill="#020203"/>
<path d="M208.316 128.735C208.316 124.216 211.818 120.939 216.506 120.939C221.194 120.939 224.696 124.216 224.696 128.735C224.696 133.254 221.194 136.53 216.506 136.53C211.761 136.587 208.316 133.254 208.316 128.735ZM221.816 128.735C221.816 125.628 219.556 123.368 216.449 123.368C213.343 123.368 211.083 125.628 211.083 128.735C211.083 131.842 213.343 134.101 216.449 134.101C219.556 134.101 221.816 131.842 221.816 128.735Z" fill="#020203"/>
<path d="M228.989 134.723L229.949 132.52C231.192 133.48 233.112 134.214 234.976 134.214C237.349 134.214 238.365 133.367 238.365 132.237C238.365 128.961 229.328 131.107 229.328 125.459C229.328 123.03 231.305 120.939 235.428 120.939C237.236 120.939 239.156 121.391 240.512 122.295L239.608 124.498C238.252 123.707 236.727 123.312 235.428 123.312C233.056 123.312 232.152 124.216 232.152 125.402C232.152 128.622 241.19 126.532 241.19 132.124C241.19 134.553 239.213 136.643 235.033 136.643C232.604 136.587 230.232 135.852 228.989 134.723Z" fill="#020203"/>
<path d="M245.257 134.723L246.217 132.52C247.46 133.48 249.38 134.214 251.244 134.214C253.616 134.214 254.633 133.367 254.633 132.237C254.633 128.961 245.595 131.107 245.595 125.459C245.595 123.03 247.572 120.939 251.696 120.939C253.503 120.939 255.424 121.391 256.779 122.295L255.876 124.498C254.52 123.707 252.995 123.312 251.696 123.312C249.323 123.312 248.42 124.216 248.42 125.402C248.42 128.622 257.457 126.532 257.457 132.124C257.457 134.553 255.48 136.643 251.3 136.643C248.872 136.587 246.499 135.852 245.257 134.723Z" fill="#020203"/>
<path d="M274.233 133.989V136.361H262.823V121.166H273.894V123.539H265.591V127.493H272.934V129.809H265.591V133.989H274.233Z" fill="#020203"/>
<path d="M293.494 121.166V136.361H291.179L282.819 126.08V136.361H279.995V121.166H282.31L290.67 131.447V121.166H293.494Z" fill="#020203"/>
<path d="M298.917 134.723L299.877 132.52C301.12 133.48 303.04 134.214 304.904 134.214C307.276 134.214 308.293 133.367 308.293 132.237C308.293 128.961 299.256 131.107 299.256 125.459C299.256 123.03 301.233 120.939 305.356 120.939C307.163 120.939 309.084 121.391 310.44 122.295L309.536 124.498C308.18 123.707 306.655 123.312 305.356 123.312C302.984 123.312 302.08 124.216 302.08 125.402C302.08 128.622 311.117 126.532 311.117 132.124C311.117 134.553 309.14 136.643 304.961 136.643C302.532 136.587 300.159 135.852 298.917 134.723Z" fill="#020203"/>
<path d="M327.837 133.989V136.361H316.427V121.166H327.498V123.539H319.195V127.493H326.538V129.809H319.195V133.989H327.837Z" fill="#020203"/>
<path d="M93.708 149.072H100.373C105.287 149.072 108.676 152.123 108.676 156.698C108.676 161.274 105.287 164.324 100.373 164.324H93.708V149.072ZM100.204 161.839C103.593 161.839 105.796 159.749 105.796 156.642C105.796 153.478 103.593 151.445 100.204 151.445H96.5322V161.895H100.204V161.839Z" fill="#020203"/>
<path d="M125.622 161.895V164.268H114.212V149.072H125.283V151.445H116.98V155.399H124.323V157.715H116.98V161.895H125.622Z" fill="#020203"/>
<path d="M139.969 149.072H146.634C151.549 149.072 154.938 152.123 154.938 156.698C154.938 161.274 151.549 164.324 146.634 164.324H139.969V149.072ZM146.521 161.839C149.911 161.839 152.113 159.749 152.113 156.642C152.113 153.478 149.911 151.445 146.521 151.445H142.85V161.895H146.521V161.839Z" fill="#020203"/>
<path d="M170.188 160.709H162.563L161.038 164.211H158.157L164.992 149.016H167.76L174.651 164.211H171.714L170.188 160.709ZM169.228 158.506L166.348 151.84L163.523 158.506H169.228Z" fill="#020203"/>
<path d="M192.726 149.072V164.268H190.41L182.05 153.987V164.268H179.226V149.072H181.542L189.901 159.353V149.072H192.726Z" fill="#020203"/>
<path d="M210.632 160.2L212.439 161.951C211.083 163.533 209.05 164.436 206.678 164.493L206.452 165.34C207.751 165.51 208.316 166.244 208.316 167.148C208.316 168.391 207.129 169.238 205.378 169.238C204.588 169.238 203.91 169.068 203.401 168.786L203.91 167.487C204.362 167.713 204.87 167.826 205.378 167.826C206.169 167.826 206.508 167.543 206.508 167.035C206.508 166.639 206.169 166.301 205.378 166.301H204.701L205.209 164.38C201.199 163.872 198.318 160.765 198.318 156.641C198.318 152.122 201.82 148.846 206.452 148.846C208.937 148.846 211.083 149.75 212.496 151.388L210.688 153.082C209.558 151.896 208.203 151.275 206.621 151.275C203.458 151.275 201.199 153.478 201.199 156.641C201.199 159.804 203.458 162.007 206.621 162.007C208.203 162.007 209.558 161.386 210.632 160.2Z" fill="#020203"/>
<path d="M227.351 160.709H219.726L218.201 164.211H215.263L222.098 149.016H224.866L231.757 164.211H228.82L227.351 160.709ZM226.391 158.506L223.51 151.84L220.686 158.506H226.391Z" fill="#020203"/>
<path d="M235.089 162.629L236.05 160.426C237.292 161.386 239.213 162.12 241.077 162.12C243.449 162.12 244.466 161.273 244.466 160.143C244.466 156.867 235.428 159.014 235.428 153.365C235.428 150.936 237.405 148.846 241.529 148.846C243.336 148.846 245.257 149.298 246.612 150.201L245.708 152.404C244.353 151.614 242.828 151.218 241.529 151.218C239.156 151.218 238.252 152.122 238.252 153.308C238.252 156.528 247.29 154.438 247.29 160.03C247.29 162.459 245.313 164.549 241.133 164.549C238.704 164.493 236.332 163.759 235.089 162.629Z" fill="#020203"/>
<path d="M103.536 188.613H95.9109L94.3858 192.116H91.5051L98.3398 176.92H101.108L107.999 192.116H105.061L103.536 188.613ZM102.633 186.41L99.7519 179.745L96.9277 186.41H102.633ZM100.26 175.677H97.8879L100.825 172.684H104.045L100.26 175.677Z" fill="#020203"/>
<path d="M122.516 192.172L119.409 187.709C119.239 187.709 119.013 187.709 118.844 187.709H115.398V192.115H112.574V176.92H118.844C122.854 176.92 125.34 178.953 125.34 182.343C125.34 184.659 124.154 186.353 122.12 187.144L125.622 192.115H122.516V192.172ZM118.675 179.349H115.398V185.393H118.675C121.16 185.393 122.459 184.263 122.459 182.343C122.459 180.422 121.16 179.349 118.675 179.349Z" fill="#020203"/>
<path d="M140.93 188.613H133.304L131.779 192.115H128.842L135.676 176.92H138.444L145.335 192.115H142.398L140.93 188.613ZM139.969 186.41L137.089 179.744L134.264 186.41H139.969Z" fill="#020203"/>
<path d="M163.41 187.992C163.41 190.59 161.377 192.115 157.479 192.115H149.91V176.92H157.027C160.699 176.92 162.619 178.445 162.619 180.874C162.619 182.456 161.828 183.586 160.642 184.207C162.337 184.772 163.41 186.071 163.41 187.992ZM152.734 179.179V183.36H156.745C158.722 183.36 159.795 182.682 159.795 181.269C159.795 179.857 158.665 179.179 156.745 179.179H152.734ZM160.586 187.709C160.586 186.184 159.456 185.506 157.31 185.506H152.734V189.912H157.31C159.456 189.912 160.586 189.234 160.586 187.709Z" fill="#020203"/>
<path d="M180.469 189.799V192.172H169.059V176.977H180.186V179.349H171.883V183.303H179.226V185.619H171.883V189.799H180.469Z" fill="#020203"/>
<path d="M184.931 190.533L185.891 188.33C187.134 189.29 189.054 190.025 190.918 190.025C193.29 190.025 194.307 189.177 194.307 188.048C194.307 184.771 185.27 186.918 185.27 181.269C185.27 178.84 187.247 176.75 191.37 176.75C193.177 176.75 195.098 177.202 196.454 178.106L195.55 180.309C194.194 179.518 192.669 179.123 191.37 179.123C188.998 179.123 188.094 180.026 188.094 181.213C188.094 184.432 197.131 182.342 197.131 187.935C197.131 190.364 195.154 192.454 190.975 192.454C188.546 192.341 186.173 191.606 184.931 190.533Z" fill="#020203"/>
</svg>
