<svg width="300" height="300" viewBox="0 0 300 300" fill="none" xmlns="http://www.w3.org/2000/svg">
<g clip-path="url(#clip0_22_1004)">
<path fill-rule="evenodd" clip-rule="evenodd" d="M251.661 199.256L251.661 196.84L249.954 198.549L151 297.584L151 231.929L231.984 151.124L299 151.124L299 299L251.661 299L251.661 199.256ZM150 300L151 298.999L249.661 200.256L250.661 199.256L250.661 200.67L250.661 299L250.661 300L251.661 300L299 300L300 300L300 299L300 151.124L300 150.124L299 150.124L231.57 150.124L150 231.514L150 298.585L150 300ZM299.752 81.6379C299.835 81.6376 299.917 81.6375 300 81.6375L299.752 81.6375L299.752 80.6379L299.752 80.6375L299.752 1.24792L299.752 0.247918L299.504 0.247918C299.253 0.247918 299.002 0.248533 298.752 0.249761C216.622 0.652337 150.289 66.9578 149.755 149.124C149.753 149.374 149.752 149.625 149.752 149.876L149.248 149.876L69.6777 149.876L68.9247 149.876L150 68.4865L150 1.41479L150 -6.55671e-06L149 1.00082L50.3386 99.7437L49.3386 100.745L49.3386 99.3297L49.3386 0.999989L49.3386 -1.09568e-05L48.3386 -1.10005e-05L1 -1.30697e-05L0 -1.31134e-05L-4.37114e-08 0.999987L-6.51842e-06 149.124L-6.56213e-06 150.124L0.999993 150.124L68.6773 150.124C68.5452 187.557 38.5237 217.692 1.24807 218.351C0.915304 218.357 0.581961 218.361 0.248068 218.362L0.119162 218.362L0.000173561 218.362L0.248068 218.362L0.248068 219.362L0.248068 219.362L0.248064 298.752L0.248064 299.752L0.495928 299.752C0.562121 299.752 0.628313 299.752 0.694475 299.752L0.818896 299.752C0.961993 299.751 1.10506 299.751 1.24806 299.75C83.3779 299.347 149.711 233.042 150.245 150.876C150.246 150.625 150.247 150.375 150.248 150.124L150.752 150.124L230.322 150.124L231.322 150.124C231.322 112.576 261.394 82.3093 298.752 81.6485C299.085 81.6426 299.418 81.6391 299.752 81.6379ZM230.329 149.124C230.858 111.484 261.178 81.3035 298.752 80.6484L298.752 1.24977C217.175 1.65232 151.289 67.5093 150.755 149.124L230.329 149.124ZM1.24807 219.351L1.24806 298.75C82.8248 298.347 148.711 232.49 149.245 150.876L69.6707 150.876C69.1422 188.516 38.8224 218.696 1.24807 219.351ZM48.3386 100.745L48.3386 103.16L50.046 101.451L149 2.41562L149 68.0734L68.2622 149.124L0.999993 149.124L1 0.999987L48.3386 0.999989L48.3386 100.745Z" fill="black"/>
</g>
<defs>
<clipPath id="clip0_22_1004">
<rect width="300" height="300" fill="white"/>
</clipPath>
</defs>
</svg>
