<svg width="300" height="300" viewBox="0 0 300 300" fill="none" xmlns="http://www.w3.org/2000/svg">
<g clip-path="url(#clip0_22_1004)">
<path fill-rule="evenodd" clip-rule="evenodd" d="M41.0556 0.130514C87.784 6.38457 131.33 34.0195 149.675 82.8373C149.855 83.3173 150.033 83.7994 150.209 84.2836C150.384 83.7994 150.562 83.3173 150.743 82.8373C169.088 34.0195 212.633 6.38457 259.362 0.130514C259.695 0.0859222 260.028 0.0424176 260.362 0V1.00811V39.847C260.362 39.847 260.361 39.847 260.361 39.8471H298.992H300C299.958 40.1805 299.914 40.5139 299.87 40.8471C293.616 87.5747 265.981 131.12 217.165 149.465C216.684 149.646 216.201 149.824 215.716 150C216.201 150.175 216.684 150.353 217.165 150.533C266.182 168.877 293.618 212.424 299.87 259.153C299.914 259.486 299.958 259.82 300 260.153H298.992L260.362 260.153V298.992V300C260.118 299.969 259.875 299.938 259.632 299.905C259.542 299.893 259.452 299.882 259.362 299.869C212.633 293.615 169.088 265.98 150.743 217.162C150.562 216.682 150.384 216.2 150.209 215.716C150.033 216.2 149.855 216.682 149.675 217.162C131.33 265.98 87.784 293.615 41.0556 299.869C40.7225 299.914 40.3891 299.958 40.0556 300V298.992V260.153C83.2059 252.396 108.954 220.1 117.204 183.051C80.1244 191.301 47.616 216.936 39.8467 260.153H1.00811H0C0.0424175 259.82 0.0859221 259.486 0.130514 259.153C6.38456 212.425 34.0195 168.879 82.8372 150.534C83.3173 150.353 83.7994 150.175 84.2835 150C83.7994 149.824 83.3173 149.646 82.8372 149.466C34.0195 131.121 6.38457 87.5755 0.130514 40.8471C0.0859221 40.5139 0.0424175 40.1805 0 39.8471H1.00811H39.8467C47.616 83.0637 79.9987 108.825 117.119 117.033C108.829 80.0247 83.2059 47.6043 40.0556 39.847V1.00811V0C40.3891 0.0424176 40.7225 0.0859222 41.0556 0.130514ZM117.354 118.105C79.9653 109.984 47.1653 84.2336 39.0138 40.8471H1.13949C7.45 87.6876 35.3667 131.204 84.6243 149.06L87.2178 150L84.6243 150.94C35.3667 168.796 7.45 212.313 1.13949 259.153H39.0138C47.1674 215.765 80.094 190.142 117.437 181.979C119.663 171.534 120.504 160.727 119.958 150C120.458 139.318 119.592 128.538 117.354 118.105ZM118.504 181.751C120.678 171.365 121.496 160.638 120.96 149.998C121.451 139.405 120.607 128.705 118.421 118.332C128.754 120.478 139.421 121.285 150.002 120.751C160.685 121.247 171.477 120.384 181.932 118.157C179.744 128.572 178.919 139.331 179.458 150.002C178.966 160.642 179.81 171.369 181.997 181.756C171.534 179.544 160.722 178.708 149.998 179.249C139.463 178.76 128.823 179.592 118.504 181.751ZM118.276 182.818C110.114 220.135 84.3755 252.847 41.0556 260.986V298.861C87.8961 292.55 131.413 264.633 149.269 215.375L150.209 212.782L151.149 215.375C169.005 264.633 212.521 292.55 259.362 298.861V260.986C216.044 252.847 190.432 220.137 182.227 182.824C171.705 180.559 160.812 179.701 150 180.25C139.377 179.753 128.656 180.608 118.276 182.818ZM260.146 260.114C217.13 252.288 191.579 220.044 183.3 183.061C220.234 191.367 252.393 217.084 260.146 260.114ZM183.065 181.987C220.279 190.209 252.865 215.929 260.986 259.153H298.861C292.553 212.311 264.838 168.796 215.376 150.941L212.776 150.002L215.375 149.06C264.633 131.204 292.55 87.6876 298.861 40.8471H260.986C252.864 84.0648 220.163 109.657 183.001 117.924C180.76 128.4 179.912 139.24 180.459 150C179.959 160.73 180.826 171.539 183.065 181.987ZM183.236 116.85C220.121 108.499 252.395 82.9082 260.146 39.886C217.164 47.7052 191.495 79.9041 183.236 116.85ZM182.162 117.088C171.646 119.368 160.772 120.254 150 119.75C139.331 120.292 128.584 119.463 118.192 117.265C109.988 79.9928 84.3764 47.1551 41.0556 39.0141V1.13949C87.8961 7.45 131.413 35.3667 149.269 84.6244L150.209 87.2178L151.149 84.6244C169.005 35.3667 212.521 7.45 259.362 1.13949V39.0141C216.078 47.1462 190.347 79.8097 182.162 117.088Z" fill="black"/>
</g>
<defs>
<clipPath id="clip0_22_1004">
<rect width="300" height="300" fill="white"/>
</clipPath>
</defs>
</svg>
