<svg width="300" height="300" viewBox="0 0 300 300" fill="none" xmlns="http://www.w3.org/2000/svg">
<g clip-path="url(#clip0_22_1004)">
<path fill-rule="evenodd" clip-rule="evenodd" d="M219.732 169.214L220.374 169.53L220.88 169.024L256.562 133.342C270.049 119.855 276.602 104.082 276.42 88.3189C276.238 72.5595 269.326 56.9162 256.085 43.6756C236.03 23.6203 210.425 18.1623 187.327 28.4386L170.651 11.7628C206.514 -8.95252 246.142 2.30707 271.798 27.9618C286.993 43.2752 297.156 63.571 298.507 85.0334C299.856 106.471 292.419 129.149 272.275 149.293L236.596 184.734L236.079 185.247L236.409 185.897C243.589 200.024 241.042 217.632 229.46 229.216C214.623 243.819 190.991 243.811 176.399 229.221C161.797 214.384 161.805 190.755 176.394 176.163C188.213 164.578 205.592 162.26 219.732 169.214ZM169.759 12.2851L187.109 29.6345C209.945 19.1679 235.397 24.4011 255.378 44.3827C281.545 70.5491 282.497 105.993 255.855 132.635L220.173 168.316C205.663 161.18 187.822 163.559 175.69 175.453C160.704 190.439 160.704 214.702 175.69 229.926C190.676 244.912 214.94 244.912 230.164 229.926C242.058 218.032 244.675 199.954 237.301 185.443L272.982 150C313.659 109.323 303.192 58.1796 272.506 27.2557C246.551 1.30096 206.32 -10.1433 169.919 11.0311C169.623 11.2038 169.326 11.3786 169.03 11.5556L169.759 12.2851ZM213.506 213.744L213.513 213.737L213.521 213.729C219.354 207.642 219.376 198.218 213.506 192.348C207.644 186.487 197.972 186.487 192.11 192.348C186.249 198.21 186.249 207.883 192.11 213.744C197.972 219.606 207.644 219.606 213.506 213.744ZM212.799 193.055C218.27 198.527 218.27 207.328 212.799 213.037C207.328 218.508 198.289 218.508 192.817 213.037C187.346 207.566 187.346 198.527 192.817 193.055C198.289 187.584 207.328 187.584 212.799 193.055ZM130.786 219.97L130.47 220.612L130.976 221.118L166.658 256.8C180.145 270.287 195.917 276.84 211.681 276.658C227.44 276.476 243.084 269.565 256.324 256.324C276.379 236.269 281.838 210.663 271.562 187.565L288.237 170.889C308.953 206.752 297.693 246.38 272.039 272.035C256.726 287.23 236.43 297.394 214.967 298.745C193.529 300.094 170.851 292.657 150.707 272.513L115.266 236.833L114.753 236.317L114.104 236.647C99.9762 243.826 82.3682 241.28 70.7838 229.698C56.1811 214.861 56.1889 191.23 70.778 176.638C85.6149 162.036 109.245 162.044 123.837 176.632C135.421 188.452 137.74 205.83 130.786 219.97ZM287.715 169.997L270.366 187.347C280.832 210.183 275.599 235.635 255.617 255.617C229.451 281.783 194.007 282.735 167.365 256.093L131.683 220.411C138.82 205.901 136.441 188.06 124.547 175.928C109.561 160.942 85.2977 160.942 70.0736 175.928C55.0874 190.915 55.0874 215.178 70.0736 230.402C81.9674 242.296 100.046 244.912 114.557 237.538L150 273.22C190.677 313.897 241.821 303.43 272.745 272.744C298.699 246.789 310.144 206.558 288.969 170.158C288.797 169.861 288.622 169.564 288.445 169.268L287.715 169.997ZM86.256 192.348C80.3943 198.21 80.3943 207.883 86.256 213.745C92.1176 219.606 101.79 219.606 107.652 213.745C113.513 207.883 113.513 198.21 107.652 192.348C101.79 186.487 92.1176 186.487 86.256 192.348ZM86.9631 213.037C81.4919 207.566 81.4919 198.527 86.9631 193.055C92.4342 187.584 101.473 187.584 106.944 193.055C112.416 198.527 112.416 207.566 106.944 213.037C101.473 218.509 92.4342 218.509 86.9631 213.037ZM79.3875 130.47L80.0298 130.786C94.1694 137.74 111.549 135.422 123.368 123.837C137.956 109.245 137.964 85.615 123.362 70.778C108.77 56.1892 85.1401 56.1812 70.3029 70.7835C58.7208 82.3678 56.1738 99.9756 63.3536 114.103L63.6835 114.753L63.1668 115.266L27.4878 150.708L27.4866 150.709C7.34344 170.852 -0.093668 193.53 1.25514 214.967C2.60551 236.429 12.7686 256.724 27.9628 272.037C53.6183 297.693 93.2474 308.953 129.11 288.237L112.435 271.561C89.3369 281.838 63.7315 276.38 43.6762 256.324C30.4355 243.084 23.524 227.44 23.342 211.681C23.16 195.918 29.7125 180.145 43.1999 166.658L78.8814 130.976L79.3875 130.47ZM112.653 270.366L130.002 287.715L130.732 288.444C130.436 288.621 130.139 288.796 129.842 288.969C93.4419 310.143 53.2105 298.699 27.2557 272.744C-3.43031 241.82 -13.8962 190.677 26.7807 150L62.4621 114.557C55.0879 100.046 57.7046 81.9676 69.5984 70.0738C84.8225 55.0876 109.086 55.0876 124.072 70.0738C139.058 85.2979 139.058 109.561 124.072 124.547C111.94 136.441 94.0989 138.82 79.5885 131.684L43.9071 167.365C17.2649 194.007 18.2169 229.451 44.3833 255.617C64.3649 275.599 89.8169 280.832 112.653 270.366ZM86.2558 86.2561C92.1175 80.3944 101.79 80.3944 107.651 86.2561C113.513 92.1178 113.513 101.79 107.651 107.652C101.79 113.513 92.1175 113.513 86.2558 107.652C80.3941 101.79 80.3941 92.1178 86.2558 86.2561ZM106.944 86.9632C101.473 81.4921 92.434 81.4921 86.9629 86.9632C81.4917 92.4344 81.4917 101.473 86.9629 106.945C92.434 112.416 101.473 112.416 106.944 106.945C112.415 101.473 112.415 92.4344 106.944 86.9632ZM169.214 80.0305L169.53 79.3882L169.024 78.8821L133.343 43.2007C119.855 29.7132 104.083 23.1606 88.3195 23.3424C72.56 23.5243 56.9168 30.4357 43.6761 43.6763C23.6208 63.7316 18.1623 89.3376 28.4386 112.435L11.7628 129.111C-8.95245 93.2487 2.307 53.6203 27.9616 27.9648C43.2749 12.7698 63.5709 2.60609 85.0333 1.25554C106.47 -0.093406 129.148 7.34349 149.291 27.4864L149.293 27.4879L184.734 63.167L185.247 63.6837L185.896 63.3537C200.024 56.174 217.633 58.7209 229.217 70.303C243.819 85.1404 243.811 108.771 229.222 123.363C214.385 137.964 190.755 137.956 176.164 123.368C164.579 111.548 162.26 94.17 169.214 80.0305ZM12.2851 130.003L29.6345 112.654C19.1679 89.8177 24.4016 64.365 44.3832 44.3834C70.5496 18.217 105.993 17.2656 132.636 43.9078L168.317 79.5892C161.181 94.0997 163.559 111.94 175.453 124.072C190.439 139.058 214.703 139.058 229.927 124.072C244.913 109.086 244.913 84.8226 229.927 69.5985C218.033 57.7047 199.954 55.0881 185.443 62.4622L150 26.7808C109.323 -13.8961 58.1796 -3.42962 27.2557 27.2564C1.30096 53.2112 -10.1433 93.4426 11.0311 129.843C11.2038 130.14 11.3786 130.436 11.5556 130.733L12.2851 130.003ZM192.126 86.2416L192.118 86.249L192.111 86.2565C186.249 92.1182 186.249 101.79 192.111 107.652C197.972 113.514 207.645 113.514 213.506 107.652C219.368 101.79 219.368 92.1182 213.506 86.2565C207.636 80.3867 198.213 80.4079 192.126 86.2416ZM212.799 86.9636C218.27 92.4348 218.27 101.474 212.799 106.945C207.328 112.416 198.289 112.416 192.818 106.945C187.347 101.474 187.347 92.4348 192.818 86.9636C198.527 81.4925 207.328 81.4925 212.799 86.9636Z" fill="black"/>
</g>
<defs>
<clipPath id="clip0_22_1004">
<rect width="300" height="300" fill="white"/>
</clipPath>
</defs>
</svg>
