<svg width="300" height="300" viewBox="0 0 300 300" fill="none" xmlns="http://www.w3.org/2000/svg">
<path fill-rule="evenodd" clip-rule="evenodd" d="M206.503 80.8882H283.11L300 51.8637H202.934C192.942 51.8637 189.135 53.5289 184.615 60.904L144.647 130.135H119.191L167.725 46.1539C172.007 38.5409 182.95 28.7866 192.229 28.7866H283.11L299.763 0H192.229C171.293 0 151.547 15.9398 142.744 31.8795L128.707 56.1459V16.6535L99.921 0V104.441L80.6503 93.2595V16.6535L51.8633 0V97.066C51.8633 107.058 53.5282 110.864 60.9033 115.385L130.135 155.353V180.809L46.1538 132.276C38.5407 127.994 28.7858 117.05 28.7858 107.772V16.8913L0 0.237848V107.772C0 128.708 15.9395 148.454 31.8793 157.256L56.1452 171.293H16.6535L0 200.079H104.441L93.2589 219.35H16.6535L0 248.137H97.0657C107.058 248.137 111.103 246.471 115.385 239.096L155.353 169.865H180.809L132.275 253.846C127.993 261.459 117.05 271.213 107.771 271.213H16.8905L0.236978 300H107.771C128.707 300 148.453 284.061 157.256 268.121L171.293 243.854V283.347L200.079 300V195.559L219.35 206.741V283.347L248.137 300V202.934C248.137 192.942 246.472 188.898 239.097 184.615L169.627 144.885V119.429L253.608 167.962C261.221 172.244 270.976 183.188 270.976 192.466V283.347L299.763 300V192.466C299.763 171.531 283.822 151.784 267.883 142.982L243.617 128.945H283.11L299.763 100.159H195.321L206.503 80.8882ZM298.029 101.159H193.584L205.927 79.8882H282.534L298.261 52.8637H202.934C197.964 52.8637 194.708 53.2845 192.158 54.5184C189.643 55.7353 187.687 57.8071 185.475 61.4153L145.224 131.135H117.458L166.853 45.6637C166.854 45.6621 166.855 45.6605 166.856 45.6589C169.073 41.7194 172.974 37.2804 177.495 33.8212C182 30.3744 187.27 27.7866 192.229 27.7866H282.533L298.029 1H192.229C171.76 1 152.303 16.6394 143.62 32.3629L143.615 32.3717L127.707 59.8716V17.2302L100.921 1.73382V106.177L79.6503 93.8354V17.2302L52.8633 1.73379V97.066C52.8633 102.036 53.284 105.292 54.5178 107.842C55.7347 110.357 57.8065 112.312 61.4147 114.525L131.135 154.776V182.542L45.6635 133.148C45.662 133.147 45.6604 133.146 45.6589 133.145C41.7193 130.928 37.2801 127.026 33.8207 122.505C30.3738 118 27.7858 112.73 27.7858 107.772V17.4681L1 1.97167V107.772C1 128.24 16.6392 147.698 32.3628 156.381L32.3714 156.386L59.8711 172.293H17.2303L1.7338 199.079H106.177L93.8348 220.35H17.2303L1.73379 247.137H97.0657C102.037 247.137 105.353 246.716 107.935 245.48C110.477 244.263 112.431 242.192 114.52 238.594L154.776 168.865H182.542L133.147 254.337C133.146 254.338 133.145 254.34 133.144 254.341C130.927 258.281 127.026 262.72 122.505 266.179C118 269.626 112.73 272.213 107.771 272.213H17.4673L1.97078 299H107.771C128.24 299 147.697 283.361 156.38 267.637L156.385 267.629L172.293 240.128V282.77L199.079 298.266V193.823L220.35 206.165V282.77L247.137 298.266V202.934C247.137 197.963 246.716 194.647 245.48 192.065C244.264 189.524 242.194 187.57 238.597 185.481C238.596 185.481 238.595 185.481 238.595 185.48L168.627 145.465V117.696L254.098 167.09C254.1 167.091 254.102 167.092 254.104 167.093C258.043 169.311 262.482 173.212 265.941 177.733C269.388 182.238 271.976 187.508 271.976 192.466V282.77L298.763 298.266V192.466C298.763 171.998 283.123 152.54 267.399 143.857L267.39 143.852L239.891 127.945H282.533L298.029 101.159Z" fill="black"/>
</svg>
