<svg width="300" height="300" viewBox="0 0 300 300" fill="none" xmlns="http://www.w3.org/2000/svg">
<g clip-path="url(#clip0_22_1004)">
<path fill-rule="evenodd" clip-rule="evenodd" d="M227.058 40.6108L227.561 40.3227L296.241 1H229.257C189.615 1 157.66 32.6335 157.122 71.6189H227.058V41.1905V40.6108ZM228.058 71.6189V72.6189H227.058H157.115H156.115C156.115 72.2851 156.118 71.9517 156.122 71.6189C156.66 32.0768 189.067 0 229.257 0H297.988H300L298.254 1L228.058 41.1905V71.6189ZM40.8615 74.3118L41.1506 74.8096H41.7262H72.3808V144.231C33.0944 143.701 1.23926 111.963 1.23926 72.6191V6.09388L40.8615 74.3118ZM73.3808 73.8096H72.3808H41.7262L1.23926 4.10283L0.239258 2.38112V4.37217V72.6191C0.239258 112.524 32.5508 144.701 72.3808 145.231C72.7136 145.236 73.047 145.238 73.3808 145.238V144.238V74.8096V73.8096ZM106.14 73.7844L105.851 73.2867H105.276H74.6211V3.86499C113.908 4.39542 145.763 36.1336 145.763 75.4772V142.002L106.14 73.7844ZM73.6211 2.85824V3.85824V73.2867V74.2867H74.6211H105.276L145.763 143.993L146.763 145.715V143.724V75.4772C146.763 35.5726 114.451 3.39543 74.6211 2.8649C74.2883 2.86046 73.9549 2.85824 73.6211 2.85824ZM228.314 105.153L228.818 104.865V104.285V73.8567H298.753C298.215 112.842 266.26 144.476 226.618 144.476H159.634L228.314 105.153ZM299.76 72.8567H298.76H228.818H227.818V73.8567V104.285L157.622 144.476L155.875 145.476H157.888H226.618C266.808 145.476 299.215 113.399 299.753 73.8567C299.758 73.5239 299.76 73.1905 299.76 72.8567ZM194.149 226.713L193.86 226.216L154.237 157.998V224.523C154.237 263.867 186.092 295.605 225.379 296.135V226.713H194.724H194.149ZM225.379 225.713H226.379V226.713V296.142V297.142C226.305 297.142 226.232 297.142 226.158 297.142C225.898 297.141 225.638 297.139 225.379 297.135C185.549 296.605 153.237 264.428 153.237 224.523V156.276V154.285L154.237 156.007L194.724 225.713H225.379ZM259.138 225.688L258.849 225.191H258.274H227.619V155.769C266.906 156.299 298.761 188.037 298.761 227.381V293.906L259.138 225.688ZM226.619 154.762V155.762V225.191V226.191H227.619H258.274L298.761 295.897L299.761 297.619V295.628V227.381C299.761 187.476 267.449 155.299 227.619 154.769C227.286 154.764 226.953 154.762 226.619 154.762ZM72.9425 259.39L72.4394 259.678L3.7592 299H70.7435C110.385 299 142.34 267.367 142.878 228.381H72.9425V258.81V259.39ZM142.885 227.381H143.885C143.885 227.715 143.883 228.048 143.878 228.381C143.34 267.923 110.933 300 70.7435 300H2.01261H0L1.74659 299L71.9425 258.81V228.381V227.381H72.9425H142.885ZM71.9252 194.846L71.422 195.134V195.713V226.142H1.48639C2.02451 187.156 33.9795 155.523 73.6211 155.523H140.605L71.9252 194.846ZM72.422 227.142V226.142V195.713L142.618 155.523L144.365 154.523H142.352H73.6211C33.4317 154.523 1.02446 186.6 0.486294 226.142C0.481764 226.475 0.479492 226.808 0.479492 227.142H1.47949H71.422H72.422Z" fill="black"/>
</g>
<defs>
<clipPath id="clip0_22_1004">
<rect width="300" height="300" fill="white"/>
</clipPath>
</defs>
</svg>
