<svg width="300" height="300" viewBox="0 0 300 300" fill="none" xmlns="http://www.w3.org/2000/svg">
<g clip-path="url(#clip0_22_1004)">
<path fill-rule="evenodd" clip-rule="evenodd" d="M230.213 107.145L243.616 98.9149C250.991 93.9066 255.75 84.8915 255.75 75.1253C255.75 59.349 243.616 46.5776 228.628 46.5776C213.64 46.5776 201.507 59.349 201.507 75.1253V95.9097L158.494 141.184L157.494 142.237V140.785V74.8746C157.494 33.5557 189.373 0 228.628 0C267.883 0 300 33.5559 300 75.1253C300 102.17 286.202 125.96 265.742 139.232L261.697 141.736L230.046 108.421L229.342 107.68L230.213 107.145ZM200.507 75.1253V95.5104L158.494 139.732V74.8746C158.494 34.0591 189.973 1 228.628 1C267.285 1 299 34.0615 299 75.1253C299 101.824 285.38 125.297 265.206 138.388L265.197 138.393L261.862 140.458L230.917 107.886L244.139 99.7671L244.159 99.7551L244.178 99.7422C251.842 94.538 256.75 85.2052 256.75 75.1253C256.75 58.8456 244.216 45.5776 228.628 45.5776C213.04 45.5776 200.507 58.8456 200.507 75.1253ZM69.787 192.855L56.3838 201.085C49.0087 206.093 44.2503 215.108 44.2503 224.875C44.2503 240.651 56.3839 253.422 71.372 253.422C86.3601 253.422 98.4931 240.651 98.4931 224.875V204.09L141.506 158.816L142.506 157.763V159.215V225.125C142.744 266.444 110.627 300 71.372 300C32.1174 300 0 266.444 0 224.875C0 197.83 13.7984 174.04 34.2583 160.768L38.3026 158.264L69.9541 191.579L70.6582 192.32L69.787 192.855ZM99.4931 224.875V204.49L141.506 160.268L141.506 225.125L141.506 225.131C141.741 265.937 110.032 299 71.372 299C32.7153 299 1 265.938 1 224.875C1 198.176 14.6194 174.704 34.7937 161.613L38.1377 159.542L69.0829 192.114L55.8605 200.233L55.841 200.245L55.822 200.258C48.1584 205.462 43.2503 214.795 43.2503 224.875C43.2503 241.154 55.7839 254.422 71.372 254.422C86.9601 254.422 99.4931 241.154 99.4931 224.875ZM251.467 209.349L259.286 223.457L259.794 224.374L260.516 223.614L292.15 190.317L289.771 186.06C277.161 164.524 254.56 150 228.866 150C189.374 150 157.494 183.806 157.494 225.125C157.494 266.444 189.373 300 228.628 300H291.246H292.625L291.675 299L248.613 253.673H228.866C213.878 253.673 201.745 240.901 201.745 225.125C201.745 209.349 213.878 196.578 228.866 196.578C238.145 196.578 246.709 201.586 251.467 209.349ZM248.183 254.673H228.866C213.278 254.673 200.745 241.405 200.745 225.125C200.745 208.845 213.278 195.578 228.866 195.578C238.505 195.578 247.386 200.777 252.32 208.826L252.331 208.845L252.342 208.864L260.008 222.697L290.917 190.162L288.908 186.565L288.902 186.557C276.453 165.299 254.165 151 228.866 151C189.976 151 158.494 184.307 158.494 225.125C158.494 265.941 189.973 299 228.628 299H290.296L248.183 254.673ZM40.9527 76.5429L48.7713 90.651C53.5294 98.414 62.094 103.422 71.3724 103.422C86.3605 103.422 98.4935 90.6509 98.4935 74.8746C98.4935 59.0983 86.3605 46.3272 71.3724 46.3272H51.626L8.56332 1L7.61328 0H8.99262H71.61C110.627 0 142.744 33.5557 142.744 74.8746C142.744 116.193 110.865 150 71.3724 150C45.6785 150 23.0771 135.476 10.468 113.94L8.08898 109.683L39.7224 76.386L40.4445 75.626L40.9527 76.5429ZM71.3724 45.3272H52.0553L9.94266 1H71.61C110.029 1 141.744 34.0613 141.744 74.8746C141.744 115.692 110.263 149 71.3724 149C46.0733 149 23.7859 134.701 11.3361 113.443L9.32112 109.838L40.2306 77.303L47.8966 91.1357L47.9072 91.1549L47.9187 91.1736C52.8522 99.2227 61.734 104.422 71.3724 104.422C86.9605 104.422 99.4935 91.1543 99.4935 74.8746C99.4935 58.5949 86.9605 45.3272 71.3724 45.3272Z" fill="#020203"/>
</g>
<defs>
<clipPath id="clip0_22_1004">
<rect width="300" height="300" fill="white"/>
</clipPath>
</defs>
</svg>
