<svg width="300" height="300" viewBox="0 0 300 300" fill="none" xmlns="http://www.w3.org/2000/svg">
<g clip-path="url(#clip0_22_1004)">
<path fill-rule="evenodd" clip-rule="evenodd" d="M157.305 71.9045C157.305 33.0284 188.438 1.54076 227.153 1.00689V79.8928C219.909 113.351 191.781 138.984 157.305 142.703V71.9045ZM156.305 71.9045C156.305 32.4768 187.885 0.540762 227.153 0.00679514C227.485 0.0022699 227.819 0 228.153 0V1V79.9993C234.1 52.6186 253.608 30.7139 279.064 20.952C291.911 34.0472 300 52.1428 300 71.9046C300 111.33 268.19 143.265 229.153 143.802C228.82 143.807 228.486 143.809 228.153 143.809V142.809V79.9997C220.847 113.962 192.298 139.982 157.305 143.709C156.972 143.744 156.639 143.778 156.305 143.809V142.804V71.9045ZM229.153 80.1073C235.005 53.3347 253.991 31.8708 278.809 22.1238C291.216 35.0035 299 52.6549 299 71.9046C299 110.777 267.639 142.265 229.153 142.802V80.1073ZM278.809 277.876C291.216 264.996 299 247.345 299 228.095C299 189.223 267.639 157.735 229.153 157.198V219.892C235.005 246.665 253.991 268.129 278.809 277.876ZM228.153 220C234.1 247.381 253.608 269.286 279.064 279.048C291.911 265.952 300 247.857 300 228.095C300 188.669 268.19 156.735 229.153 156.197C228.82 156.193 228.486 156.191 228.153 156.191V157.191V219.999C220.847 186.037 192.298 160.018 157.305 156.291C156.972 156.255 156.639 156.222 156.305 156.19V157.195V228.095C156.305 267.522 187.885 299.459 227.153 299.993C227.485 299.998 227.819 300 228.153 300V299V220ZM227.153 298.993C188.438 298.459 157.305 266.971 157.305 228.095V157.296C191.781 161.015 219.909 186.648 227.153 220.106V298.993ZM21.1911 22.1237C8.78368 35.0034 1 52.6548 1 71.9045C1 110.776 32.3613 142.265 70.8476 142.802V80.1072C64.9949 53.3346 46.009 31.8707 21.1911 22.1237ZM20.9356 20.9519C8.08865 34.0471 0 52.1427 0 71.9045C0 111.33 31.8105 143.265 70.8476 143.802C71.1805 143.807 71.5138 143.809 71.8476 143.809V142.809V79.9995C65.9 52.6186 46.3916 30.7138 20.9356 20.9519ZM73.0859 1.00689C111.801 1.54076 142.934 33.0284 142.934 71.9045V142.703C108.457 138.984 80.3297 113.351 73.0859 79.8928V1.00689ZM143.934 143.809V142.804V71.9045C143.934 32.4768 112.354 0.540762 73.0859 0.00679514C72.7531 0.0022699 72.4198 0 72.0859 0V1V79.9995C79.3916 113.962 107.941 139.981 142.934 143.709C143.267 143.744 143.6 143.778 143.934 143.809ZM20.9356 279.047C46.3916 269.286 65.9 247.381 71.8476 220V157.19V156.19C71.5138 156.19 71.1805 156.193 70.8476 156.197C31.8105 156.734 0 188.669 0 228.095C0 247.857 8.08865 265.952 20.9356 279.047ZM70.8476 157.197C32.3613 157.734 1 189.223 1 228.095C1 247.345 8.78368 264.996 21.1911 277.876C46.009 268.129 64.9949 246.665 70.8476 219.892V157.197ZM142.934 228.095C142.934 266.971 111.801 298.459 73.0859 298.993V220.107C80.3297 186.648 108.457 161.015 142.934 157.297V228.095ZM72.0859 300C72.4198 300 72.7531 299.998 73.0859 299.993C112.354 299.459 143.934 267.523 143.934 228.095V157.195V156.191C143.6 156.222 143.267 156.255 142.934 156.291C107.941 160.018 79.3916 186.037 72.0859 220V299V300Z" fill="#020203"/>
</g>
<defs>
<clipPath id="clip0_22_1004">
<rect width="300" height="300" fill="white"/>
</clipPath>
</defs>
</svg>
