<svg width="300" height="300" viewBox="0 0 300 300" fill="none" xmlns="http://www.w3.org/2000/svg">
<g clip-path="url(#clip0_22_1004)">
<path fill-rule="evenodd" clip-rule="evenodd" d="M235.643 11.7669C221.275 26.3691 221.284 49.7667 235.64 64.1223C250.241 78.723 273.631 78.7148 287.987 64.128C302.356 49.5268 302.349 26.1291 287.995 11.7723C273.393 -2.59394 249.999 -2.5858 235.643 11.7669ZM288.699 11.0626C273.711 -3.68755 249.683 -3.68755 234.933 11.0626C220.183 26.0507 220.183 50.0792 234.933 64.8294C249.921 79.8175 273.949 79.8175 288.699 64.8294C303.449 49.8413 303.449 25.8128 288.699 11.0626ZM186.593 34.6938L186.593 34.7043L186.594 34.7146C190.686 75.6323 224.13 109.076 265.048 113.168L265.057 113.169L265.066 113.17C273.614 113.863 281.727 117.793 287.999 123.83C302.348 138.187 302.355 161.58 287.989 176.18C273.633 190.532 250.238 190.54 235.637 176.173C229.38 169.914 225.681 162.048 224.986 153.252L224.985 153.241L224.984 153.231C220.893 112.313 187.449 78.8698 146.532 74.778L146.522 74.7771L146.513 74.7763C137.947 74.0818 129.842 70.3782 123.586 64.1223C109.231 49.7676 109.222 26.3722 123.586 11.7698C138.189 -2.59489 161.584 -2.58495 175.939 11.7698C182.198 18.0291 185.898 25.8965 186.593 34.6938ZM234.933 176.883C249.921 191.633 273.949 191.633 288.7 176.883C303.45 161.895 303.45 137.867 288.7 123.116C282.276 116.931 273.95 112.887 265.147 112.173C224.703 108.128 191.634 75.0592 187.589 34.6151C186.876 25.5747 183.07 17.4861 176.646 11.0626C161.896 -3.68755 137.867 -3.68755 122.879 11.0626C108.129 26.0507 108.129 50.0792 122.879 64.8294C129.303 71.2529 137.63 75.0593 146.432 75.773C186.876 79.8175 219.945 112.886 223.989 153.33C224.703 162.371 228.51 170.46 234.933 176.883ZM34.7045 74.7771L34.7149 74.7781C75.6326 78.8699 109.076 112.313 113.168 153.231L113.169 153.24C114.79 171.078 128.922 185.209 146.76 186.831L146.769 186.832C187.686 190.924 221.13 224.367 225.222 265.285L225.223 265.294L225.224 265.304C225.917 273.851 229.847 281.964 235.884 288.237C250.241 302.586 273.634 302.592 288.234 288.226C302.586 273.871 302.594 250.477 288.228 235.876C281.969 229.617 274.103 225.918 265.306 225.224L265.296 225.223L265.285 225.222C224.368 221.13 190.924 187.687 186.832 146.769L186.831 146.76C185.21 128.922 171.078 114.79 153.24 113.169L153.231 113.168C112.314 109.076 78.8701 75.6324 74.7783 34.7148L74.7774 34.7054L74.7766 34.6961C74.0821 26.1303 70.3785 18.0258 64.1226 11.7699C49.7679 -2.58483 26.3722 -2.59476 11.7698 11.7699C-2.59489 26.3723 -2.58495 49.7677 11.7698 64.1224C18.0291 70.3818 25.8968 74.0817 34.6941 74.7763L34.7045 74.7771ZM11.0626 11.0628C26.0507 -3.68743 50.0795 -3.68743 64.8297 11.0628C71.2532 17.4862 75.0596 25.8127 75.7733 34.6153C79.8177 75.0593 112.887 108.129 153.331 112.173C171.65 113.838 186.162 128.351 187.827 146.669C191.872 187.113 224.941 220.182 265.385 224.227C274.425 224.94 282.514 228.747 288.937 235.17C303.688 250.158 303.688 274.187 288.937 288.937C273.949 303.687 249.92 303.687 235.17 288.937C228.985 282.514 224.941 274.187 224.227 265.384C220.183 224.94 187.113 191.871 146.669 187.827C128.35 186.162 113.838 171.649 112.173 153.331C108.128 112.886 75.0595 79.8176 34.6154 75.7732C25.575 75.0594 17.4861 71.253 11.0626 64.8295C-3.68755 50.0793 -3.68755 26.0509 11.0626 11.0628ZM34.7045 186.831L34.7149 186.832C75.6326 190.924 109.076 224.367 113.168 265.285L113.169 265.294L113.17 265.304C113.863 273.851 117.793 281.964 123.831 288.237C138.187 302.586 161.58 302.593 176.18 288.227C190.532 273.87 190.54 250.475 176.172 235.874C169.914 229.617 162.048 225.918 153.252 225.224L153.242 225.223L153.231 225.222C112.314 221.13 78.8701 187.687 74.7783 146.769L74.7774 146.76L74.7766 146.75C74.0821 138.185 70.3785 130.08 64.1226 123.824C49.767 109.468 26.3691 109.459 11.7669 123.827C-2.58596 138.183 -2.59394 161.578 11.7728 176.179C18.0316 182.437 25.8982 186.136 34.6941 186.83L34.7045 186.831ZM11.0626 176.883C-3.68755 161.895 -3.68755 137.867 11.0626 123.117C26.0507 108.367 50.0795 108.367 64.8297 123.117C71.2532 129.54 75.0596 137.867 75.7733 146.67C79.8177 187.114 112.887 220.183 153.331 224.227C162.371 224.941 170.46 228.747 176.883 235.171C191.633 250.159 191.633 274.187 176.883 288.937C161.895 303.688 137.867 303.688 123.117 288.937C116.931 282.514 112.887 274.187 112.173 265.385C108.128 224.94 75.0595 191.872 34.6154 187.827C25.575 187.113 17.4861 183.307 11.0626 176.883ZM11.7728 288.232C-2.59394 273.631 -2.58596 250.236 11.7669 235.88C26.3691 221.512 49.7669 221.521 64.1226 235.877C78.4773 250.232 78.4872 273.627 64.1226 288.229C49.5212 302.593 26.1277 302.584 11.7728 288.232ZM11.0626 288.936C25.8128 303.687 49.8416 303.687 64.8297 288.936C79.5799 273.948 79.5799 249.92 64.8297 235.17C50.0795 220.42 26.0507 220.42 11.0626 235.17C-3.68755 249.92 -3.68755 273.948 11.0626 288.936Z" fill="#020203"/>
</g>
<defs>
<clipPath id="clip0_22_1004">
<rect width="300" height="300" fill="white"/>
</clipPath>
</defs>
</svg>
