<svg width="300" height="300" viewBox="0 0 300 300" fill="none" xmlns="http://www.w3.org/2000/svg">
<g clip-path="url(#clip0_22_1004)">
<path fill-rule="evenodd" clip-rule="evenodd" d="M196.273 1.00643C196.817 1.26103 197.355 1.52447 197.888 1.79655C216.042 11.0574 228.391 30.3362 228.391 52.1176V90.933C228.867 110.461 244.806 127.337 264.077 127.337C283.823 127.337 300 109.979 300 89.9686C300 24.2423 246.381 -5.25956 198.067 0.766052C197.468 0.840722 196.87 0.920847 196.273 1.00643ZM199.639 1.5887C217.413 11.2614 229.391 30.4791 229.391 52.1176V90.9208C229.861 109.954 245.404 126.337 264.077 126.337C283.225 126.337 299 109.474 299 89.9686C299 57.003 285.402 33.3162 265.828 18.7144C247.096 4.74063 222.832 -0.954893 199.639 1.5887ZM4.12104 103.501C3.84889 104.048 3.58549 104.6 3.33104 105.158C3.24591 104.548 3.16626 103.937 3.09207 103.326C-2.84646 54.3687 26.2663 0.0425415 91.1184 0.0425415C110.865 0.0425415 127.756 16.1958 127.994 36.4473C127.994 55.9756 111.341 72.1286 92.0704 72.6108H53.7671C32.2814 72.6108 13.2636 85.1152 4.12104 103.501ZM91.1184 1.04254C110.325 1.04254 126.759 16.7624 126.994 36.4532C126.991 55.4044 110.807 71.1349 92.0578 71.6108H53.7671C32.415 71.6108 13.4647 83.7365 3.91504 101.714C1.41396 78.2119 7.03843 53.6308 20.8232 34.6542C35.234 14.8158 58.603 1.04254 91.1184 1.04254ZM102.112 298.204C102.645 298.476 103.184 298.739 103.727 298.994C103.13 299.079 102.532 299.159 101.933 299.234C53.619 305.26 0 275.758 0 210.032C0 190.021 16.1773 172.663 35.9236 172.663C55.194 172.663 71.1338 189.539 71.6096 209.067V247.883C71.6096 269.664 83.9582 288.943 102.112 298.204ZM34.1723 281.286C52.9043 295.26 77.1683 300.955 100.362 298.411C82.5871 288.739 70.6096 269.521 70.6096 247.883V209.08C70.1394 190.046 54.5959 173.663 35.9236 173.663C16.7754 173.663 1 190.527 1 210.032C1 242.997 14.5985 266.684 34.1723 281.286ZM157.683 162.539C120.526 169.845 88.0732 199.052 88.0732 249.811C88.0732 269.308 103.604 285.943 123.004 286.18C141.673 286.177 157.213 269.794 157.683 250.763V162.539ZM157.683 161.52C120.033 168.845 87.0732 198.432 87.0732 249.811C87.0732 269.822 103.013 286.939 122.997 287.18C142.268 287.18 158.208 270.304 158.683 250.776V161.331C158.35 161.393 158.016 161.456 157.683 161.52ZM51.8638 89.0402C101.935 89.0402 130.767 121.923 137.974 159.608H50.925C32.176 159.133 15.9917 143.402 15.9883 124.451C16.2229 104.997 32.6613 89.0402 51.8638 89.0402ZM51.8638 88.0402C102.571 88.0402 131.769 121.448 138.992 159.608C139.055 159.941 139.116 160.275 139.176 160.608H50.9124C31.642 160.126 14.9883 143.973 14.9883 124.445C15.2262 104.434 32.1176 88.0402 51.8638 88.0402ZM295.879 196.5C296.151 195.952 296.415 195.4 296.669 194.842C296.754 195.452 296.834 196.063 296.908 196.675C302.847 245.632 273.733 299.957 208.881 299.957C189.135 299.957 172.244 283.805 172.006 263.553C172.006 244.025 188.66 227.872 207.93 227.39H246.233C267.719 227.39 286.737 214.885 295.879 196.5ZM246.233 228.39C267.585 228.39 286.536 216.264 296.085 198.286C298.586 221.788 292.962 246.369 279.177 265.346C264.766 285.184 241.397 298.957 208.881 298.957C189.674 298.957 173.24 283.238 173.006 263.547C173.009 244.596 189.194 228.865 207.943 228.39H246.233ZM142.316 137.46C179.473 130.154 211.927 100.948 211.927 50.1885C211.927 30.6925 196.396 14.0571 176.996 13.8196C158.327 13.8232 142.787 30.2052 142.316 49.2364V137.46ZM142.316 138.479C141.983 138.544 141.65 138.607 141.316 138.668V49.2241C141.792 29.6959 157.732 12.8196 177.002 12.8196C196.987 13.0607 212.927 30.1781 212.927 50.1885C212.927 101.568 179.967 131.155 142.316 138.479ZM248.136 210.96C198.064 210.96 169.233 178.077 162.026 140.392H249.075C267.826 140.868 284.011 156.601 284.011 175.555C284.011 194.992 267.351 210.96 248.136 210.96ZM160.824 139.392C160.884 139.725 160.945 140.059 161.008 140.392C168.231 178.552 197.428 211.96 248.136 211.96C267.882 211.96 285.011 195.566 285.011 175.555C285.011 156.027 268.358 139.874 249.088 139.392H160.824Z" fill="black"/>
</g>
<defs>
<clipPath id="clip0_22_1004">
<rect width="300" height="300" fill="white"/>
</clipPath>
</defs>
</svg>
