<svg width="300" height="300" viewBox="0 0 300 300" fill="none" xmlns="http://www.w3.org/2000/svg">
<path fill-rule="evenodd" clip-rule="evenodd" d="M111 109V110C111 146.686 84.2067 178.066 47.0401 183.134L47.0231 183.136L47.0061 183.138C33.173 184.544 21.2267 190.457 13.623 199.512C6.27357 208.264 2.92241 220.017 5.90248 233.677C25.1028 222.389 47.4706 217.122 69.6193 219.243L74.8319 219.742L69.8022 221.199C36.0468 230.976 15.4508 264.777 21.5468 299H107.619C127.495 299 140.66 286.424 143.782 270.933C146.859 255.663 140.193 237.384 120.123 225.418C107.518 246.852 86.3236 260.277 63.4977 264.082L56.25 265.29L62.9112 262.189C90.1915 249.489 109 221.977 109 190V189H110C146.691 189 177.825 215.797 183.133 252.954L183.136 252.974L183.138 252.994C184.544 266.827 190.457 278.773 199.512 286.377C208.264 293.726 220.017 297.077 233.678 294.097C222.39 274.897 217.122 252.529 219.243 230.381L219.742 225.168L221.199 230.198C230.976 263.953 264.777 284.549 299 278.453V192.381C299 172.505 286.424 159.34 270.933 156.218C255.663 153.141 237.384 159.807 225.418 179.877C246.852 192.482 260.277 213.676 264.082 236.502L265.29 243.75L262.189 237.089C249.489 209.809 221.977 191 190 191H189V190C189 153.309 215.798 122.175 252.954 116.867L252.974 116.864L252.994 116.862C266.827 115.456 278.774 109.543 286.377 100.488C293.727 91.7358 297.078 79.983 294.098 66.3223C274.897 77.6102 252.53 82.878 230.381 80.7574L225.168 80.2583L230.198 78.8014C263.953 69.024 284.549 35.2226 278.453 1H192.381C172.506 1 159.34 13.5756 156.219 29.0666C153.142 44.3372 159.807 62.6159 179.877 74.5816C192.483 53.1476 213.676 39.7227 236.502 35.9184L243.75 34.7104L237.089 37.8113C209.809 50.5107 191 78.0227 191 110V111H190C153.309 111 122.175 84.2023 116.867 47.0461L116.864 47.026L116.862 47.0058C115.456 33.1727 109.543 21.2265 100.488 13.6228C91.736 6.27339 79.9833 2.92226 66.3226 5.90234C77.6105 25.1026 82.878 47.4703 80.7574 69.619L80.2583 74.8316L78.8014 69.8019C69.024 36.0465 35.2226 15.4506 1 21.5467V107.619C1 127.494 13.5756 140.66 29.0666 143.781C44.3372 146.858 62.6159 140.193 74.5816 120.123C53.1476 107.517 39.7227 86.3236 35.9184 63.4977L34.7104 56.25L37.8113 62.9112C50.5107 90.1914 78.023 109 110 109H111ZM75.4474 119.471C55.2376 107.726 42.1652 88.276 37.6068 67.0192C37.3445 65.7962 37.1104 64.5671 36.9048 63.3333C37.4304 64.4625 37.9812 65.5774 38.5563 66.6772C52.0474 92.478 78.9431 110 110 110C110 110.334 109.998 110.667 109.993 111C109.512 146.759 83.2334 177.189 46.9049 182.143C19.1404 184.966 -1.41601 205.694 4.99742 234.215C5.07381 234.555 5.15404 234.896 5.23812 235.238C5.53683 235.057 5.83634 234.878 6.13664 234.7C24.452 223.861 45.6928 218.565 66.848 220.018C67.7402 220.079 68.6323 220.153 69.524 220.238C68.6657 220.487 67.8159 220.751 66.9747 221.029C33.9755 231.967 14.2134 265.87 20.7143 300H107.619C148.053 300 161.717 249.042 120.625 224.553C120.34 224.383 120.052 224.215 119.762 224.048C119.665 224.217 119.568 224.385 119.471 224.553C107.726 244.763 88.2758 257.835 67.0192 262.393C65.7962 262.655 64.5671 262.89 63.3333 263.095C64.4625 262.57 65.5774 262.019 66.6772 261.444C92.478 247.953 110 221.057 110 190C110.334 190 110.667 190.002 111 190.007C146.755 190.488 176.953 216.767 182.143 253.095C184.966 280.86 205.694 301.416 234.216 295.002C234.555 294.926 234.896 294.846 235.238 294.762C235.058 294.463 234.878 294.164 234.701 293.863C223.861 275.548 218.565 254.307 220.018 233.152C220.079 232.26 220.153 231.368 220.238 230.476C220.487 231.334 220.751 232.184 221.029 233.025C231.967 266.024 265.87 285.786 300 279.286V192.381C300 151.947 249.042 138.283 224.553 179.375C224.383 179.66 224.215 179.948 224.048 180.238C224.217 180.335 224.385 180.432 224.554 180.53C244.763 192.274 257.835 211.724 262.393 232.981C262.655 234.204 262.89 235.433 263.095 236.667C262.57 235.538 262.019 234.423 261.444 233.323C247.953 207.522 221.057 190 190 190C190 189.666 190.002 189.333 190.007 189C190.489 153.245 216.767 123.047 253.095 117.857C280.86 115.034 301.416 94.3058 295.003 65.7844C294.926 65.4446 294.846 65.1037 294.762 64.7618C294.463 64.9425 294.164 65.1217 293.864 65.2994C275.548 76.1391 254.307 81.4347 233.152 79.9818C232.26 79.9206 231.368 79.8473 230.476 79.7619C231.335 79.5133 232.184 79.2494 233.026 78.9706C266.025 68.0334 285.787 34.1299 279.286 0H192.381C151.947 0 138.284 50.9575 179.375 75.4468C179.66 75.6166 179.948 75.7852 180.238 75.9524C180.335 75.7836 180.432 75.6152 180.529 75.4474C192.274 55.2376 211.724 42.1652 232.981 37.6068C234.204 37.3445 235.433 37.1104 236.667 36.9048C235.537 37.4304 234.423 37.9812 233.323 38.5563C207.522 52.0474 190 78.9428 190 110C189.666 110 189.333 109.998 189 109.993C153.245 109.511 123.047 83.2331 117.857 46.9046C115.034 19.1401 94.3061 -1.41616 65.7846 4.99727C65.4449 5.07367 65.104 5.15389 64.7621 5.23798C64.9428 5.53669 65.122 5.8362 65.2997 6.1365C76.1394 24.4519 81.4348 45.6925 79.9818 66.8477C79.9206 67.7399 79.8473 68.632 79.7619 69.5237C79.5133 68.6654 79.2494 67.8156 78.9706 66.9743C68.0334 33.9752 34.1299 14.2132 0 20.7142V107.619C0 148.053 50.9575 161.716 75.4468 120.625C75.6166 120.34 75.7852 120.052 75.9524 119.762C75.7836 119.665 75.6152 119.568 75.4474 119.471Z" fill="black"/>
</svg>
