<svg width="300" height="300" viewBox="0 0 300 300" fill="none" xmlns="http://www.w3.org/2000/svg">
<g clip-path="url(#clip0_22_1004)">
<path fill-rule="evenodd" clip-rule="evenodd" d="M42.6584 69.0291L63.9247 56.8893C85.9172 44.0704 99.6626 26.9157 102.021 1.62596C102.071 1.08767 102.116 0.545697 102.156 0C102.458 0.457922 102.756 0.916764 103.047 1.37647C128.084 40.823 112.679 86.6738 72.5263 109.732L51.2606 121.872C29.2681 134.691 15.5227 151.846 13.1648 177.135C13.1146 177.674 13.0696 178.215 13.0297 178.761C12.727 178.303 12.4297 177.844 12.1379 177.385C-12.8983 137.938 2.50607 92.0874 42.6584 69.0291ZM64.4283 57.7532C86.2585 45.0289 100.15 27.9844 102.886 3.00612C126.602 41.6516 111.393 86.2583 72.029 108.865L72.0283 108.865L50.7648 121.003L50.757 121.008C28.9268 133.732 15.0358 150.777 12.2996 175.755C-11.4169 137.109 3.79154 92.5024 43.1564 69.8963L64.4205 57.7578L64.4283 57.7532ZM66.553 126.87L87.8192 114.731C109.812 101.912 123.557 84.7569 125.915 59.4671C125.965 58.9289 126.01 58.3869 126.05 57.8412C126.353 58.2991 126.65 58.7579 126.942 59.2177C151.978 98.6642 136.573 144.516 96.4208 167.574L75.1552 179.714C53.161 192.534 39.4152 209.69 37.0588 234.983C37.0088 235.519 36.964 236.059 36.9243 236.603C36.6213 236.147 36.3238 235.691 36.0318 235.234C10.9965 196.012 26.4009 149.928 66.553 126.87ZM88.3228 115.595C110.153 102.871 124.044 85.8256 126.78 60.8473C150.497 99.4928 135.288 144.1 95.9235 166.706L95.9228 166.707L74.6594 178.845L74.6516 178.85C52.8178 191.576 38.9258 208.624 36.1928 233.609C12.4794 195.179 27.685 150.345 67.0502 127.738L67.051 127.737L88.315 115.6L88.3228 115.595ZM220.477 95.6875V119.967C220.477 165.152 251.683 200.48 296.983 199.535C276.499 184.677 268.655 164.224 268.655 139.009V114.73C268.655 69.5446 237.448 34.2164 192.148 35.1611C212.632 50.0194 220.477 70.4721 220.477 95.6875ZM190.496 35.2115C211.461 49.904 219.477 70.2861 219.477 95.6875V119.967C219.477 166.075 251.684 202.187 298.338 200.497C298.89 200.477 299.444 200.452 300 200.421C299.539 200.112 299.084 199.8 298.635 199.485C277.67 184.793 269.655 164.41 269.655 139.009V114.73C269.655 68.6214 237.447 32.51 190.793 34.1994C190.241 34.2194 189.687 34.2447 189.131 34.2753C189.592 34.5847 190.047 34.8968 190.496 35.2115ZM158.352 111.398V87.1186C158.352 61.9032 150.507 41.4506 130.023 26.5923C175.323 25.6476 206.53 60.9757 206.53 106.161V130.44C206.53 155.664 214.379 176.121 234.878 190.981C189.57 192.159 158.352 156.827 158.352 111.398ZM157.352 87.1186C157.352 61.7172 149.336 41.3351 128.371 26.6426C127.922 26.3279 127.467 26.0159 127.006 25.7064C127.562 25.6758 128.116 25.6505 128.668 25.6305C175.322 23.9412 207.53 60.0525 207.53 106.161V130.44C207.53 155.845 215.548 176.229 236.519 190.922C236.965 191.235 237.417 191.545 237.875 191.852C237.323 191.886 236.773 191.913 236.224 191.936C189.564 193.861 157.352 157.745 157.352 111.398V87.1186ZM136.544 242.708L136.542 242.706C97.1942 220.11 50.9954 229.143 28.9426 268.934C51.9603 258.634 73.9051 262.056 95.7247 274.773L95.7285 274.776L116.987 286.911L116.989 286.912C156.333 309.507 202.756 300.249 224.597 260.681C201.576 270.985 179.629 267.564 157.806 254.845L157.803 254.843L136.544 242.708ZM158.306 253.979C180.292 266.794 202.278 270.03 225.385 259.221C225.884 258.988 226.383 258.748 226.883 258.501C226.63 259 226.373 259.494 226.112 259.984C204.243 301.107 156.634 310.832 116.491 287.779L95.225 275.64C73.2402 262.825 51.2556 259.589 28.1505 270.396C27.6504 270.63 27.1497 270.87 26.6484 271.117C26.9033 270.618 27.1618 270.123 27.4239 269.632C49.5172 228.28 96.8958 218.786 137.04 241.839L158.306 253.979ZM175.012 193.195L175.014 193.197L196.272 205.332L196.275 205.334C218.098 218.053 240.045 221.474 263.066 211.17C241.225 250.738 194.803 259.995 155.458 237.401L155.456 237.4L134.198 225.265L134.194 225.263C112.372 212.544 90.4244 209.122 67.4037 219.426C89.2448 179.858 135.667 170.601 175.012 193.195ZM175.51 192.328L196.775 204.468C218.761 217.283 240.747 220.519 263.854 209.71C264.353 209.477 264.852 209.237 265.352 208.99C265.099 209.489 264.842 209.983 264.582 210.473C242.712 251.596 195.103 261.321 154.96 238.268L133.695 226.129C111.709 213.314 89.7227 210.078 66.6161 220.887C66.1173 221.12 65.618 221.36 65.1182 221.606C65.3712 221.108 65.628 220.613 65.8885 220.124C87.758 179 135.367 169.276 175.51 192.328Z" fill="black"/>
</g>
<defs>
<clipPath id="clip0_22_1004">
<rect width="300" height="300" fill="white"/>
</clipPath>
</defs>
</svg>
