<svg width="300" height="300" viewBox="0 0 300 300" fill="none" xmlns="http://www.w3.org/2000/svg">
<g clip-path="url(#clip0_22_1004)">
<path fill-rule="evenodd" clip-rule="evenodd" d="M131.702 121.85L126.969 120.991C80.8901 112.623 38.0439 137.437 16.2302 167.9C5.32442 183.129 -0.234 199.647 1.57265 214.013C3.33603 228.034 12.1378 240.191 30.3048 247.225C36.8282 223.682 48.436 201.79 63.5097 182.006L65.1823 183.092C48.1674 214.168 46.5587 250.382 56.7721 273.95C61.8723 285.718 69.8715 294.238 80.2717 297.514C90.4672 300.726 103.196 298.969 118.133 289.893C95.1513 254.197 95.5771 207.575 119.176 172.296L121.847 168.302L120.991 173.03C112.623 219.23 137.438 262.136 167.9 283.949C183.129 294.854 199.646 300.397 214.011 298.562C228.033 296.77 240.192 287.925 247.226 269.696C223.683 263.172 201.791 251.565 182.006 236.491L183.092 234.818C214.168 251.833 250.383 253.442 273.95 243.228C285.718 238.128 294.238 230.129 297.514 219.729C300.726 209.533 298.969 196.804 289.893 181.867C254.197 204.849 207.575 204.423 172.296 180.825L168.302 178.153L173.03 179.009C219.23 187.377 262.136 162.562 283.949 132.1C294.854 116.871 300.398 100.354 298.562 85.9893C296.77 71.9671 287.925 59.8082 269.696 52.7738C263.173 76.3177 251.565 98.2096 236.491 117.994L234.818 116.908C251.833 85.8321 253.442 49.6176 243.229 26.0503C238.129 14.2819 230.129 5.76226 219.729 2.48614C209.534 -0.725511 196.804 1.0312 181.867 10.1073C204.849 45.8031 204.423 92.4253 180.825 127.704L178.153 131.698L179.009 126.97C187.377 80.77 162.562 37.8644 132.1 16.0512C116.871 5.14571 100.354 -0.397585 85.9893 1.43801C71.9671 3.22981 59.8082 12.0752 52.7737 30.3039C76.3177 36.8273 98.2101 48.4352 117.995 63.5092L116.908 65.1818C85.8326 48.1669 49.6179 46.5583 26.0506 56.7718C14.2821 61.8719 5.76235 69.8712 2.48619 80.2714C-0.725521 90.4669 1.03115 103.196 10.1073 118.133C45.8031 95.151 92.4255 95.5769 127.704 119.175L131.702 121.85ZM10.6314 118.985C10.3513 119.165 10.0719 119.347 9.79313 119.531C9.61573 119.246 9.44092 118.962 9.26868 118.679C-26.916 59.172 50.3348 31.7977 111.895 61.4788C113.741 62.3692 115.574 63.3109 117.389 64.3046C115.743 63.0507 114.083 61.821 112.408 60.6163C94.0137 47.384 73.8997 37.1824 52.4188 31.2433C52.0964 31.1541 51.7736 31.0659 51.4505 30.9787C51.567 30.6627 51.6849 30.3492 51.8043 30.0385C80.4819 -44.5863 194.776 32.8234 180.409 124.682C180.281 125.503 180.142 126.325 179.993 127.148C180.46 126.451 180.917 125.749 181.365 125.043C203.382 90.3559 203.339 45.2888 181.016 10.6314C180.835 10.3513 180.653 10.0719 180.47 9.79318C180.755 9.61578 181.039 9.44097 181.322 9.26873C240.829 -26.9159 268.203 50.3343 238.521 111.894C237.631 113.741 236.689 115.573 235.696 117.388C236.95 115.742 238.179 114.082 239.384 112.408C252.616 94.0133 262.818 73.8998 268.757 52.4189C268.846 52.0964 268.934 51.7737 269.022 51.4506C269.338 51.567 269.651 51.685 269.962 51.8044C344.587 80.482 267.177 194.776 175.318 180.41C174.497 180.281 173.675 180.143 172.852 179.993C173.549 180.46 174.251 180.917 174.957 181.365C209.644 203.382 254.711 203.338 289.369 181.015C289.649 180.835 289.928 180.653 290.207 180.469C290.207 180.469 290.207 180.47 290.207 180.47C290.385 180.754 290.559 181.038 290.732 181.321C326.916 240.828 249.666 268.202 188.106 238.521C186.26 237.631 184.427 236.689 182.612 235.695C184.258 236.949 185.918 238.179 187.593 239.383C205.987 252.616 226.1 262.817 247.581 268.756C247.904 268.846 248.227 268.934 248.55 269.021C248.433 269.337 248.315 269.651 248.196 269.961C219.518 344.586 105.225 267.177 119.591 175.318C119.719 174.497 119.858 173.675 120.007 172.852C119.541 173.549 119.083 174.251 118.635 174.957C96.6184 209.644 96.6622 254.711 118.985 289.369C119.166 289.649 119.348 289.928 119.531 290.207C119.246 290.384 118.962 290.559 118.679 290.731C59.1722 326.916 31.7982 249.666 61.4794 188.106C62.3697 186.259 63.3114 184.427 64.3052 182.612C63.0512 184.258 61.8215 185.918 60.6169 187.592C47.3845 205.987 37.183 226.1 31.2438 247.581C31.1547 247.904 31.0665 248.226 30.9792 248.549C30.6633 248.433 30.3499 248.314 30.0393 248.195C-44.3458 219.516 33.0571 105.231 124.68 119.589C125.502 119.718 126.324 119.857 127.148 120.007C126.45 119.54 125.748 119.082 125.042 118.634C90.3545 96.6181 45.2881 96.6623 10.6314 118.985Z" fill="black"/>
</g>
<defs>
<clipPath id="clip0_22_1004">
<rect width="300" height="300" fill="white"/>
</clipPath>
</defs>
</svg>
