<svg width="300" height="300" viewBox="0 0 300 300" fill="none" xmlns="http://www.w3.org/2000/svg">
<path fill-rule="evenodd" clip-rule="evenodd" d="M124.687 66.5809L124.686 66.581C96.2218 82.9896 85.1135 115.429 101.802 143.603C103.854 125.54 114.097 113.049 129.871 103.897L129.872 103.897L223.726 49.5796L236.548 2.07458L124.687 66.5809ZM236.917 0.707417L124.187 65.7147C94.9235 82.5838 83.6289 116.283 101.638 145.26C101.93 145.731 102.23 146.2 102.538 146.667C102.572 146.111 102.614 145.56 102.663 145.014C104.322 126.629 114.431 114.011 130.373 104.762L224.584 50.2384L237.775 1.36717L238.144 0L236.917 0.707417ZM182.712 100.523H297.587L262.71 135.428H168.437C150.136 135.428 135.183 141.098 124.161 155.785C124.128 123.034 149.701 100.523 182.712 100.523ZM182.712 99.5234H298.586H300L299 100.523L263.124 136.428H168.437C149.949 136.428 135.053 142.269 124.185 157.444C123.865 157.891 123.548 158.346 123.235 158.809C123.208 158.248 123.189 157.691 123.177 157.136C122.425 123.037 148.768 99.5234 182.712 99.5234ZM117.288 199.238H2.41284L37.052 164.571H131.324C149.636 164.571 164.597 158.895 175.62 144.188C175.884 176.933 150.317 199.238 117.288 199.238ZM0 200.238H1.41364H117.288C151.237 200.238 177.582 176.948 176.596 142.848C176.58 142.298 176.557 141.746 176.527 141.19C176.216 141.649 175.903 142.1 175.585 142.543C164.716 157.727 149.817 163.571 131.324 163.571H36.6375L0.999193 199.238L0 200.238ZM175.313 233.419L175.313 233.42L63.4512 297.925L76.274 250.421L170.128 196.103L170.129 196.103C185.903 186.951 196.146 174.46 198.198 156.398C214.886 184.572 203.778 217.011 175.313 233.419ZM61.8555 300L63.0822 299.292L175.813 234.286C205.076 217.417 216.371 183.717 198.362 154.74C198.07 154.27 197.77 153.801 197.462 153.333C197.428 153.889 197.386 154.441 197.337 154.987C195.677 173.371 185.569 185.989 169.627 195.238L75.416 249.762L62.2245 298.633L61.8555 300ZM242.512 233.787L242.515 233.782C259.132 205.305 252.518 171.896 224.134 155.644C231.334 172.379 228.644 188.289 219.501 204.072L193.064 249.902L205.888 297.41L242.512 233.787ZM206.256 298.775L205.551 300L205.183 298.635L191.99 249.762L218.636 203.571C227.877 187.617 230.388 171.664 222.682 154.838C222.453 154.337 222.214 153.836 221.967 153.333C222.467 153.59 222.962 153.851 223.451 154.117C253.371 170.417 260.466 205.002 243.378 234.286L206.256 298.775ZM57.4882 66.2135L94.1117 2.58958L106.936 50.0983L80.4983 95.9275C71.3557 111.711 68.6656 127.621 75.8654 144.356C47.5006 128.106 41.0937 94.6987 57.4881 66.2135L57.4882 66.2135ZM56.6215 65.7147L93.7434 1.22499L94.4485 0L94.8168 1.3646L108.009 50.2384L81.3636 96.4288C72.1225 112.382 69.6119 128.336 77.3177 145.162C77.547 145.663 77.7855 146.165 78.033 146.667C77.5322 146.411 77.0376 146.15 76.549 145.883C46.6366 129.584 39.7674 94.9984 56.6215 65.7147Z" fill="black"/>
</svg>
